<svg version="1.1" xmlns="http://www.w3.org/2000/svg" xmlns:xlink="http://www.w3.org/1999/xlink" width="85.91277" height="66.20048" viewBox="0,0,85.91277,66.20048"><g transform="translate(-308.47566,-67.34277)"><g data-paper-data="{&quot;isPaintingLayer&quot;:true}" fill-rule="nonzero" stroke="none" stroke-width="1" stroke-linecap="butt" stroke-linejoin="miter" stroke-miterlimit="10" stroke-dasharray="" stroke-dashoffset="0" style="mix-blend-mode: normal"><g><path d="M329.90542,132.14463c0,0 -0.58469,-7.74059 -3.58009,-10.29701c-2.9954,-2.55581 -8.69414,-2.92101 -8.69414,-2.92101c0,0 -0.54811,-6.93763 -2.0455,-11.39262c-0.94989,-2.73811 -2.08208,-6.49927 -5.73533,-6.09749c-1.89979,-6.90166 -1.42484,-14.64226 -0.94989,-21.68964c-0.07316,1.24132 2.55703,3.21305 3.3606,4.0532c0.43837,0.47434 3.47034,3.24963 3.21488,3.79713c0.21949,0.47495 26.99575,24.61065 27.14146,25.04901z" fill="#c8c8be"/><path d="M326.69053,122.17624l12.63943,-8.98253l0.18291,4.12637l-12.82234,4.85616" fill="#f0e6d2"/><path d="M309.88694,101.4365l5.58901,-10.77196l2.59361,2.70214l-8.18262,8.06982" fill="#f0e6d2"/><path d="M317.66777,118.92661l8.10945,-21.25127l3.72641,6.02493l-11.83586,15.22634" fill="#f0e6d2"/><path d="M338.8916,102.60466c0,0 -0.18291,7.04738 -0.91331,10.04155c-1.16877,-0.10974 -9.05935,-7.33942 -10.33786,-8.43503c-2.44729,-2.08086 -4.74886,-4.4178 -7.01385,-6.68218c-2.55703,-2.55581 -4.82202,-5.58657 -6.97726,-8.54416c-1.82662,-2.55581 -4.42023,-6.31697 -4.71228,-9.49345c0.32862,0.25546 1.02306,2.40949 1.60714,1.97173c0.58469,-0.43837 -0.9127,-2.37351 -0.87673,-3.06734c0.32923,0.25546 1.64433,2.44668 2.11927,2.19061c0.29204,-0.36459 -0.91331,-2.15403 -0.91331,-2.59239c0.58408,0.03658 1.75346,2.04489 2.11866,2.48326c1.02245,1.27791 2.11866,2.55581 3.17769,3.83372c2.04611,2.37351 3.98187,4.74703 6.3566,6.79192c2.59361,2.22719 5.11406,4.6007 7.89058,6.60901c2.77591,2.00831 8.47466,4.89274 8.47466,4.89274z" fill="#828278"/></g><g><path d="M392.92699,98.33685c-1.42484,0.40117 -6.9041,3.10331 -8.9496,6.38953c-3.25146,5.18539 -2.9954,11.75782 -3.47034,12.41507c-0.98647,0.40178 -8.0369,-1.31449 -10.11898,3.72458c-2.08208,5.07565 0,9.71293 0,9.71293c0,0 -15.1233,-3.72458 -17.71691,-5.73289l5.18722,-18.69546l19.36063,-8.90936c0,0 14.97759,-13.21803 17.09625,-15.81103c0.21888,2.81188 -0.73102,14.31364 -1.38826,16.90664z" fill="#c8c8be"/><path d="M370.42464,120.86602l-9.86292,-3.72458l1.82662,-2.66555l8.03629,6.39014" fill="#f0e6d2"/><path d="M392.92699,98.30027l-10.11898,-6.31697l2.8131,-3.24963l7.30589,9.56661" fill="#f0e6d2"/><path d="M380.54363,117.14144l-14.17402,-15.04404l5.29697,-4.0532l8.87705,19.09724" fill="#f0e6d2"/><path d="M361.65734,110.53243c-0.40178,-0.94928 -0.91331,-8.06982 -0.76699,-8.76365c6.35599,-2.48265 12.27423,-6.20723 17.89982,-10.00497c2.59361,-1.78882 5.00432,-3.79713 7.26931,-5.98835c1.93576,-1.8254 3.90871,-4.45438 6.21028,-5.80545c0.07255,0.40178 -1.20596,1.49678 -0.94989,1.8254c0.25546,0.32862 1.8626,-1.24132 2.37412,-1.53336c0,0.47495 -1.75346,2.08147 -1.24193,2.44668c0.51153,0.3652 1.64372,-1.09561 1.93637,-1.27851c-1.02306,2.51984 -3.03198,4.85677 -4.71228,6.93824c-2.41131,2.95759 -4.8586,5.80545 -7.78144,8.25212c-5.22319,4.38182 -13.51555,12.30532 -20.23736,13.91185z" fill="#828278"/></g><path d="M343.64046,125.21797c-0.43837,0.25607 -6.94068,4.08978 -7.96374,4.67386c-1.89918,1.13219 -3.65264,2.59239 -5.58901,3.65142c-0.69382,-0.51092 -0.87673,-2.15403 -1.20535,-2.88443l0.07316,-0.21888l0.25546,-0.03658c0.25607,0.47434 0.47495,0.9127 0.62127,1.42362c1.53397,-1.64311 9.24225,-16.28536 9.24225,-16.28536c0,0 4.05442,9.34773 4.56595,9.67635z" fill="#3c3c32"/><path d="M369.1382,132.84943c-4.67569,-1.35107 -9.20567,-3.17647 -13.55275,-5.40366c-0.10913,-0.18291 5.2238,-9.38431 5.2238,-9.38431l9.27884,12.08584c0,0 0.47495,-2.04428 1.42484,-2.11744l0.10913,0.21888c-0.62066,1.42423 -1.27851,3.54168 -2.48387,4.6007z" fill="#3c3c32"/><g><g fill="#64645a"><path d="M345.09091,72.39342l-0.21888,-0.1823c0.03658,-0.14633 0.03658,-0.25607 0.07316,-0.3652c0.03658,-0.32862 0.07255,-0.69382 0.07255,-1.02245c0.03658,-0.25607 0,-0.25607 0.18291,-0.43837c0.18291,0.07316 0.21949,0.10974 0.21949,0.25546c-0.03658,0.29204 -0.07316,0.54811 -0.07316,0.84015c0,0.29204 -0.07316,0.43776 -0.10974,0.65724c-0.07316,0.07316 -0.10974,0.1823 -0.14633,0.25546z"/><path d="M344.50683,72.68546l-0.25607,-0.10974c0,-0.14572 0,-0.25546 -0.03658,-0.36459c-0.03658,-0.32862 -0.07316,-0.69382 -0.14572,-1.02245c-0.07316,-0.14633 -0.03658,-0.32862 0.07255,-0.47495c0.21949,0.03658 0.25607,0.07316 0.25607,0.21888c0.03658,0.29204 0.07316,0.54811 0.10974,0.84015c0.03658,0.21888 0.03658,0.43837 0.03658,0.65724c0,0.07316 0,0.1823 -0.03658,0.25546z"/><path d="M345.31039,72.32026c0.07316,-0.1823 0.10974,-0.3652 0.21888,-0.62066c0.10974,-0.25546 0.21949,-0.51092 0.32923,-0.76699c0.07255,-0.10913 0.10913,-0.14572 0.32862,-0.10913c0.03658,0.25546 0.03658,0.21888 -0.07316,0.47434c-0.14633,0.32862 -0.25546,0.62066 -0.40178,0.94928c-0.03658,0.10974 -0.07316,0.25607 -0.10974,0.3652l-0.29204,0.03658c0,-0.07316 0,-0.1823 0,-0.32862z"/></g><path d="M335.65477,106.05976c0,0 -0.03658,-9.56722 0.69382,-14.2045c0.58469,-3.83372 1.71688,-7.52172 2.92223,-11.17313c0.7676,-2.37351 2.88626,-8.79962 5.99079,-8.90936c3.28805,2.00831 2.33815,11.86696 2.08269,14.97088c-0.32923,4.01662 -1.57116,14.27705 -2.41131,18.22051c-1.97234,0.51092 -9.27823,1.09561 -9.27823,1.09561z" fill="#64645a"/><path d="M337.77344,99.99825c0,0 0.91331,-9.16543 2.70335,-16.17562c1.24193,-4.85677 2.92223,-7.96008 3.68922,-7.96008c1.89979,0 1.35168,7.96008 1.16877,9.96839c-0.21888,2.62897 -1.35168,10.99023 -1.89918,13.54665c-1.27851,0.32862 -5.66217,0.62066 -5.66217,0.62066z" fill="#3c3c32"/></g><g><g fill="#64645a"><path d="M353.25462,69.31511l-0.25546,-0.10974c0,-0.14633 0,-0.25546 -0.03658,-0.3652c-0.03658,-0.32862 -0.07316,-0.69382 -0.10974,-1.02245c-0.03658,-0.25546 -0.03658,-0.25546 0.07316,-0.47495c0.1823,0.03658 0.25546,0.07316 0.25546,0.21949c0.03658,0.29204 0.03658,0.5475 0.07316,0.83954c0,0.21949 0.03658,0.43837 0.03658,0.65724c0.03658,0.10974 0,0.18291 -0.03658,0.25607z"/><path d="M352.77968,69.75286l-0.29204,-0.07316c-0.03658,-0.10913 -0.07316,-0.25546 -0.10974,-0.36459c-0.10974,-0.32862 -0.21949,-0.65785 -0.32862,-0.98647c-0.07316,-0.14572 -0.10974,-0.32862 -0.03658,-0.47434c0.21888,0 0.25546,0 0.29204,0.14572c0.07316,0.25607 0.18291,0.51153 0.25607,0.80357c0.07255,0.29204 0.10913,0.43837 0.1823,0.65724c0.03658,0.10974 0.03658,0.18291 0.03658,0.29204z"/><path d="M353.51008,69.24195c0.03658,-0.21949 0.07316,-0.40178 0.10974,-0.65724c0.03658,-0.25607 0.07316,-0.54811 0.14633,-0.80357c0.03658,-0.14572 0.07316,-0.1823 0.29204,-0.1823c0.10974,0.21888 0.10974,0.21888 0.03658,0.47434c-0.07316,0.3652 -0.14633,0.69382 -0.21888,1.02245c0,0.10974 0,0.21949 -0.03658,0.3652l-0.25607,0.10974c-0.03658,-0.10974 -0.03658,-0.21949 -0.07316,-0.32862z"/></g><path d="M362.81635,108.0199c-1.79004,-2.19061 -10.48419,-7.08396 -11.0323,-7.63146c-1.09561,-3.688 -3.98126,-31.29282 1.05964,-31.65803c4.27391,-0.29204 5.37013,7.77778 6.1737,10.55308c1.13219,4.05259 3.65264,23.7705 3.79896,28.7364z" fill="#64645a"/><path d="M354.34109,102.36017c-0.5475,-6.86447 -2.84907,-27.42192 -0.98586,-29.61314c1.8626,-2.19061 3.94529,7.59488 4.45621,10.29701c0.43837,2.55642 1.3151,11.72124 1.86321,19.17041z" fill="#3c3c32"/></g><path d="M357.81387,128.50419c-4.091,3.87091 -10.59332,3.39596 -15.05014,0.32862c-4.27391,-2.92101 -6.79436,-9.63977 -7.08701,-14.64226c-0.29204,-4.70984 -1.20535,-11.57492 1.60775,-15.66409c3.06856,-4.41841 5.11406,-5.65973 11.14143,-5.80605c4.01845,-0.14572 7.92716,1.35107 10.84939,4.08978c2.37412,2.26377 3.79896,5.84203 4.091,9.05569c0.65785,7.26626 -1.82601,19.09663 -5.55242,22.63831z" fill="#64645a"/><path d="M353.66677,102.53637c-2.00892,2.11744 -7.41563,1.56995 -9.13251,0.14572c-1.46081,-1.20474 -1.13219,-3.688 0.3652,-4.85616c1.498,-1.16877 3.87213,-0.94928 5.62559,-1.02245c1.79004,0.21888 2.95942,0.14572 3.65325,2.00831c0.51153,1.35107 0.25546,2.95759 -0.51153,3.72458z" fill="#3c3c32"/><path d="M352.27851,98.59231c0.94989,-0.07255 0.98647,1.20535 0.94989,1.78943c-0.03658,0.58408 -0.07316,1.56995 -0.91331,1.49739c-0.84015,-0.07316 -0.98586,-0.98647 -0.94989,-1.49739c0.03658,-0.51092 -0.07255,-1.75285 0.91331,-1.78943z" fill="#6e1e3c"/><path d="M345.81278,98.59231c0.94989,-0.07255 1.02306,1.20535 0.94989,1.78943c-0.07316,0.58408 -0.07316,1.56995 -0.91331,1.49739c-0.84015,-0.07316 -0.98647,-0.98647 -0.94989,-1.49739c0.03658,-0.51092 -0.03658,-1.75285 0.91331,-1.78943z" fill="#6e1e3c"/><path d="M352.16938,104.76356c0,0 1.97234,0.25546 3.06795,1.24132c0.7676,0.84015 1.1328,1.97173 0.91331,3.10392c-0.51092,1.49678 -1.64372,2.44607 -3.03198,3.06734c-2.66616,1.24132 -6.57487,1.67908 -9.05935,-0.21949c-2.95881,-2.33693 -1.20535,-5.03907 1.60775,-6.24381l0.10913,-0.03658l0.51153,-0.1823l0.58469,0.21888l0.69382,-0.58408l3.10514,-0.32862z" fill="#000000"/><path d="M352.20535,104.76356c0,0 -0.43776,1.97173 -0.69382,2.62897c-0.62066,-0.98586 -0.80357,-2.62897 -0.80357,-2.62897z" fill="#ffffff"/><path d="M346.3243,105.49397c0.18291,-0.10974 0.40178,-0.21949 0.62127,-0.25607c0.25546,-0.07255 0.47495,-0.10913 0.73041,-0.14572c0.03658,0.9127 -0.03658,1.8254 -0.10974,2.73872c-0.10974,-0.07316 -1.24193,-2.33693 -1.24193,-2.33693z" fill="#ffffff"/><path d="M338.65321,99.35929l0.1823,-0.32862c0.62127,0.3652 1.20596,0.73041 1.79004,1.09561c0.3652,0.21888 0.3652,0.32862 0.25607,0.80296l-2.63019,0.65724l-0.21949,-0.1823c0.03658,-0.07316 0.03658,-0.18291 0.10974,-0.21888c0.21888,-0.10974 0.43837,-0.18291 0.65724,-0.25607c0.36581,-0.10913 0.73102,-0.14572 1.09622,-0.25546c0.10974,-0.03658 0.21888,-0.07316 0.32862,-0.14572c-0.40178,-0.58469 -1.16877,-0.62127 -1.57056,-1.16877z" fill="#000000"/><path d="M359.4021,98.26368l0.29204,0.3652c-0.51153,0.65724 -1.24193,1.02245 -1.75346,1.60653c0.03658,0.25607 0.21949,0.47495 0.47495,0.51153c0.3652,0.14572 0.69443,0.25546 1.05964,0.32862c0.21888,0.07316 0.43837,0.07316 0.51153,0.40178c-0.07316,0.03658 -0.18291,0.14572 -0.25607,0.10913c-0.87673,-0.29204 -1.82662,-0.47434 -2.59361,-1.20474c0.03658,-0.14633 0.07316,-0.32862 0.18291,-0.40178c0.76699,-0.43776 1.46081,-1.02245 2.08208,-1.71627z" fill="#000000"/></g></g></svg>