<svg version="1.1" xmlns="http://www.w3.org/2000/svg" xmlns:xlink="http://www.w3.org/1999/xlink" width="70.30549" height="91.96427" viewBox="0,0,70.30549,91.96427"><g transform="translate(-404.39421,-203.57703)"><g data-paper-data="{&quot;isPaintingLayer&quot;:true}" fill-rule="nonzero" stroke-linecap="butt" stroke-linejoin="miter" stroke-miterlimit="10" stroke-dasharray="" stroke-dashoffset="0" style="mix-blend-mode: normal"><path d="M451.75495,254.23779c-0.59416,6.33754 -3.52525,20.95351 -22.26059,20.24049c-11.52644,-0.43567 -18.02242,-9.22904 -19.9633,-17.07174c-1.94083,-7.8427 -1.58437,-25.27095 -1.18828,-30.49943c0.7526,-10.17967 9.30827,-18.89377 20.67622,-18.89377c10.49659,0 20.67626,5.94144 22.02298,18.53731c1.2675,11.80368 0.95063,25.23131 0.71297,27.68714z" data-paper-data="{&quot;index&quot;:null}" fill="#00a3a6" stroke="none" stroke-width="0.81451"/><path d="M413.57126,253.28716c-0.07922,0 -0.19802,-0.03963 -0.27729,-0.11885c-0.03959,-0.03958 -5.70375,-4.87197 -8.83291,-9.62514c-0.11886,-0.19802 -0.07922,-0.43568 0.1188,-0.55453c0.19807,-0.11885 0.43573,-0.07922 0.55453,0.11885c3.08958,4.67391 8.67452,9.42707 8.71415,9.46666c0.15844,0.11885 0.19803,0.39614 0.03959,0.55458c-0.07921,0.11881 -0.19802,0.15844 -0.31687,0.15844z" data-paper-data="{&quot;index&quot;:null}" fill="#597933" stroke="none" stroke-width="0.81451"/><path d="M427.31582,215.10347c-0.19807,-0.07922 -0.27729,-0.31688 -0.19807,-0.51495c2.1389,-4.99082 2.57463,-10.61539 2.57463,-10.65498c0.03964,-0.19807 0.19807,-0.35651 0.43573,-0.35651c0.19802,0.03964 0.35646,0.19807 0.35646,0.43573c0,0.03959 -0.43568,5.78301 -2.61422,10.89264c-0.03964,0.15844 -0.19807,0.23766 -0.35651,0.23766c-0.03958,0 -0.07922,-0.03959 -0.19802,-0.03959z" data-paper-data="{&quot;index&quot;:null}" fill="#597933" stroke="none" stroke-width="0.81451"/><g data-paper-data="{&quot;index&quot;:null}" stroke="none" stroke-width="0.81451"><path d="M430.68264,263.86294c8.39723,0 15.88346,-3.60448 21.07231,-9.30827c-0.67339,6.49598 -3.80255,20.63663 -22.22101,19.96325c-11.52639,-0.43572 -18.02237,-9.22904 -19.96325,-17.07174c-0.27729,-1.06948 -0.47531,-2.33698 -0.67338,-3.72333c5.14926,6.17911 12.99196,10.14009 21.78533,10.14009z" fill="#008994"/><path d="M429.93004,208.05297c-0.39609,2.02005 -1.02984,4.47588 -2.0201,6.85244c-0.07922,0.15844 -0.19802,0.23766 -0.35646,0.23766c-0.03964,0 -0.11885,0 -0.15844,-0.03959c-0.19807,-0.07922 -0.27729,-0.31688 -0.19807,-0.51495c0.95062,-2.25775 1.58437,-4.63431 1.94088,-6.53556c0.23766,-0.03963 0.51495,-0.03963 0.79219,0z" fill="#658542"/><path d="M413.33359,253.20795c-0.03963,-0.03963 -2.45578,-2.05973 -4.95119,-4.7928c-0.03963,-0.39609 -0.03963,-0.83177 -0.07922,-1.2675c2.69344,3.01035 5.50573,5.38691 5.54536,5.4265c0.15844,0.15849 0.19803,0.39614 0.03959,0.55458c-0.07921,0.07922 -0.19802,0.15844 -0.31687,0.15844c-0.07922,0 -0.19803,-0.03963 -0.23766,-0.07922z" fill="#658542"/><path d="M412.26413,240.57244c-0.03959,-0.03959 -2.05969,-1.62401 -4.19859,-3.84213c0,-0.19807 0,-0.39609 0,-0.55453c2.21813,2.33698 4.43625,4.0402 4.43625,4.07979c0.07922,0.07922 0.11885,0.19807 0.03963,0.27729c-0.03964,0.03959 -0.07922,0.07922 -0.15844,0.07922c-0.03963,0 -0.07922,0 -0.11885,-0.03963z" fill="#658542"/></g><path d="M436.02993,252.53458c1.46557,9.78358 0.79218,29.54881 -1.70323,41.90702c-2.9311,0.07921 -4.71354,-0.51495 -4.71354,-0.51495c0,0 1.30713,-15.64581 -1.82203,-22.30023c-3.12917,-6.65442 -10.73421,-11.68483 -11.1303,-21.38919l3.52526,-0.23766c2.25771,11.1303 8.08036,13.03155 11.48676,18.37883c0.79218,-7.01087 -0.03959,-16.59643 -0.03959,-16.59643l4.39666,0.7526z" data-paper-data="{&quot;index&quot;:null}" fill="#668543" stroke="none" stroke-width="0.81451"/><path d="M438.4857,230.78888c-0.07922,0 -0.15843,-0.07922 -0.19802,-0.03959c-0.07922,-0.11885 0,-0.23766 0.07922,-0.27729c3.76291,-1.78244 7.32779,-6.21869 7.36738,-6.25832c0.07922,-0.07922 0.19807,-0.11881 0.27729,-0.03959c0.07922,0.07922 0.11881,0.19802 0.03959,0.27724c-0.03959,0.03963 -3.64406,4.51551 -7.48624,6.33754c-0.03959,0 -0.03959,0 -0.07922,0z" data-paper-data="{&quot;index&quot;:null}" fill="#658542" stroke="none" stroke-width="0.81451"/><path d="M426.56321,226.39222c-0.07922,0 -0.19802,-0.07922 -0.27724,-0.15844c-3.12916,-3.48567 -5.34733,-9.3479 -5.42655,-9.58556c-0.07921,-0.19803 0.03964,-0.43568 0.23766,-0.5149c0.19808,-0.07921 0.43573,0.03959 0.51495,0.23766c0,0.03958 2.21813,5.98103 5.26807,9.34785c0.11885,0.15844 0.11885,0.39609 -0.03959,0.55453c-0.07922,0.07922 -0.19807,0.11885 -0.27729,0.11885z" data-paper-data="{&quot;index&quot;:null}" fill="#658542" stroke="none" stroke-width="0.81451"/><path d="M443.92533,231.2511c0.23644,0.23688 0.38301,0.56367 0.38301,0.92412c0,0.36045 -0.14657,0.68719 -0.38301,0.92407c-0.23688,0.23649 -0.56367,0.38301 -0.92412,0.38301c-0.36045,0 -0.68724,-0.14652 -0.92407,-0.38301c-0.23649,-0.23688 -0.38306,-0.56362 -0.38306,-0.92407c0,-0.36045 0.14657,-0.68724 0.38306,-0.92412c0.23683,-0.23644 0.56362,-0.38301 0.92407,-0.38301c0.36045,0 0.68724,0.14657 0.92412,0.38301z" data-paper-data="{&quot;index&quot;:null}" fill="#00d9f9" stroke="none" stroke-width="0.81451"/><path d="M445.86146,234.14737c0.21504,0.2151 0.34814,0.51218 0.34814,0.84014c0,0.32796 -0.1331,0.62505 -0.34814,0.84009c-0.2151,0.21509 -0.51218,0.34819 -0.84014,0.34819c-0.32797,0 -0.62505,-0.1331 -0.84014,-0.34819c-0.21504,-0.21505 -0.34814,-0.51213 -0.34814,-0.84009c0,-0.32797 0.1331,-0.62505 0.34814,-0.84014c0.2151,-0.21509 0.51218,-0.34814 0.84014,-0.34814c0.32797,0 0.62505,0.13305 0.84014,0.34814z" data-paper-data="{&quot;index&quot;:null}" fill="#00d9f9" stroke="none" stroke-width="0.81451"/><path d="M442.77188,234.66232c0.21509,0.21505 0.34819,0.51213 0.34819,0.84009c0,0.32797 -0.1331,0.62505 -0.34819,0.84014c-0.2151,0.21509 -0.51213,0.34819 -0.84014,0.34819c-0.32796,0 -0.625,-0.1331 -0.84009,-0.34819c-0.21509,-0.2151 -0.34819,-0.51218 -0.34819,-0.84014c0,-0.32796 0.1331,-0.62505 0.34819,-0.84009c0.21509,-0.21509 0.51213,-0.34819 0.84009,-0.34819c0.32801,0 0.62505,0.1331 0.84014,0.34819z" data-paper-data="{&quot;index&quot;:null}" fill="#00d9f9" stroke="none" stroke-width="0.81451"/><path d="M422.57097,225.2352c0.21509,0.2151 0.34814,0.51218 0.34814,0.84014c0,0.32797 -0.13305,0.62505 -0.34814,0.84014c-0.2151,0.21504 -0.51218,0.34814 -0.84014,0.34814c-0.32796,0 -0.62505,-0.1331 -0.84009,-0.34814c-0.21509,-0.2151 -0.34819,-0.51218 -0.34819,-0.84014c0,-0.32797 0.1331,-0.62505 0.34819,-0.84014c0.21505,-0.21509 0.51213,-0.34814 0.84009,-0.34814c0.32797,0 0.62505,0.13305 0.84014,0.34814z" data-paper-data="{&quot;index&quot;:null}" fill="#00d9f9" stroke="none" stroke-width="0.81451"/><path d="M418.88728,226.18582c0.21509,0.2151 0.34814,0.51218 0.34814,0.84014c0,0.32797 -0.13305,0.62505 -0.34814,0.84014c-0.2151,0.21504 -0.51218,0.34814 -0.84014,0.34814c-0.32796,0 -0.62505,-0.1331 -0.84009,-0.34814c-0.21509,-0.2151 -0.34819,-0.51218 -0.34819,-0.84014c0,-0.32797 0.1331,-0.62505 0.34819,-0.84014c0.21505,-0.21504 0.51213,-0.34814 0.84009,-0.34814c0.32797,0 0.62505,0.1331 0.84014,0.34814z" data-paper-data="{&quot;index&quot;:null}" fill="#00d9f9" stroke="none" stroke-width="0.81451"/><path d="M421.88095,229.01474c0.20084,0.20084 0.32519,0.47808 0.32519,0.78387c0,0.30579 -0.12435,0.58308 -0.32519,0.78387c-0.20079,0.20084 -0.47808,0.32524 -0.78387,0.32524c-0.30579,0 -0.58303,-0.1244 -0.78387,-0.32524c-0.20079,-0.20079 -0.32519,-0.47808 -0.32519,-0.78387c0,-0.30579 0.1244,-0.58303 0.32519,-0.78387c0.20084,-0.20079 0.47808,-0.32519 0.78387,-0.32519c0.30579,0 0.58308,0.1244 0.78387,0.32519z" data-paper-data="{&quot;index&quot;:null}" fill="#00d9f9" stroke="none" stroke-width="0.81451"/><path d="M441.64618,208.33852c0.20079,0.20084 0.32519,0.47808 0.32519,0.78387c0,0.30579 -0.1244,0.58308 -0.32519,0.78387c-0.20084,0.20084 -0.47808,0.32519 -0.78387,0.32519c-0.30579,0 -0.58308,-0.12435 -0.78387,-0.32519c-0.20084,-0.20079 -0.32519,-0.47808 -0.32519,-0.78387c0,-0.30579 0.12435,-0.58303 0.32519,-0.78387c0.20079,-0.20079 0.47808,-0.32519 0.78387,-0.32519c0.30579,0 0.58303,0.1244 0.78387,0.32519z" data-paper-data="{&quot;index&quot;:null}" fill="#00d9f9" stroke="none" stroke-width="0.81451"/><path d="M438.45444,208.87642c0.21509,0.2151 0.34814,0.51218 0.34814,0.84014c0,0.32796 -0.13305,0.62505 -0.34814,0.84009c-0.2151,0.21509 -0.51218,0.34819 -0.84014,0.34819c-0.32796,0 -0.62505,-0.1331 -0.84009,-0.34819c-0.21509,-0.21505 -0.34819,-0.51213 -0.34819,-0.84009c0,-0.32797 0.1331,-0.62505 0.34819,-0.84014c0.21505,-0.21509 0.51213,-0.34814 0.84009,-0.34814c0.32797,0 0.62505,0.13305 0.84014,0.34814z" data-paper-data="{&quot;index&quot;:null}" fill="#00d9f9" stroke="none" stroke-width="0.81451"/><path d="M440.44638,211.99411c0.208,0.20794 0.33672,0.49511 0.33672,0.81198c0,0.31688 -0.12873,0.60404 -0.33672,0.81203c-0.20794,0.20795 -0.49511,0.33667 -0.81198,0.33667c-0.31688,0 -0.60404,-0.12873 -0.81198,-0.33667c-0.20795,-0.20799 -0.33672,-0.49516 -0.33672,-0.81203c0,-0.31688 0.12878,-0.60404 0.33672,-0.81198c0.20794,-0.20795 0.49511,-0.33667 0.81198,-0.33667c0.31688,0 0.60404,0.12873 0.81198,0.33667z" data-paper-data="{&quot;index&quot;:null}" fill="#00d9f9" stroke="none" stroke-width="0.81451"/><path d="M420.46333,244.92951c-0.1188,0 -0.23765,-0.07922 -0.31687,-0.11885c-0.1188,-0.19802 -0.07922,-0.43568 0.07922,-0.55453c3.72332,-2.69343 7.32779,-9.90238 7.36738,-9.9816c0.07922,-0.19807 0.31688,-0.27729 0.51495,-0.19807c0.19802,0.07922 0.27724,0.31688 0.19802,0.51495c-0.15844,0.27724 -3.76291,7.48619 -7.60504,10.25889c-0.07922,0.03959 -0.15844,0.07922 -0.23766,0.07922z" data-paper-data="{&quot;index&quot;:null}" fill="#658542" stroke="none" stroke-width="0.81451"/><path d="M412.38299,240.61207c-0.03963,0 -0.07922,-0.03963 -0.11885,-0.03963c-0.03959,-0.03959 -4.51547,-3.52526 -7.20895,-7.40702c-0.07922,-0.07922 -0.03959,-0.19802 0.03963,-0.27724c0.07922,-0.07921 0.19802,-0.03963 0.27724,0.03959c2.65385,3.84218 7.09014,7.28821 7.12973,7.3278c0.07922,0.07922 0.11885,0.19807 0.03963,0.27729c-0.03964,0.03959 -0.11885,0.07922 -0.15844,0.07922z" data-paper-data="{&quot;index&quot;:null}" fill="#597933" stroke="none" stroke-width="0.81451"/><path d="M439.19873,254.00015c-0.15844,0 -0.31692,-0.07922 -0.35651,-0.23766c-0.11885,-0.19808 -0.03963,-0.43573 0.15844,-0.51495c3.76291,-1.86167 8.75373,-9.30827 8.79332,-9.38749c0.11885,-0.19802 0.35651,-0.23765 0.55453,-0.1188c0.19807,0.1188 0.2377,0.35646 0.11885,0.55453c-0.23766,0.31688 -5.18885,7.68426 -9.1102,9.66473c-0.03964,0.03963 -0.07922,0.03963 -0.15844,0.03963z" data-paper-data="{&quot;index&quot;:null}" fill="#658542" stroke="none" stroke-width="0.81451"/><path d="M443.35772,249.84113c0.23766,-3.12916 1.54474,-6.13951 1.54474,-6.1791c0.07922,-0.11885 0.15844,-0.19807 0.27729,-0.11885c0.11885,0.07922 0.15844,0.15844 0.11885,0.27729c0,0.03958 -1.26754,3.01031 -1.5052,6.06025c0,0.11885 -0.07922,0.19807 -0.19802,0.19807c-0.11886,0 -0.19807,-0.11886 -0.23766,-0.23766z" data-paper-data="{&quot;index&quot;:null}" fill="#658542" stroke="none" stroke-width="0.81451"/><path d="M440.94154,259.42664c-0.07922,0 -0.15844,-0.03958 -0.19807,-0.1188c-0.03959,-0.07922 0,-0.19807 0.11885,-0.23766c3.76291,-1.50521 7.68426,-4.23827 7.72389,-4.27786c0.07922,-0.07921 0.19802,-0.03963 0.27724,0.03959c0.07921,0.07922 0.03963,0.19807 -0.03959,0.27729c-0.03963,0.03958 -4.00061,2.81229 -7.80311,4.31744c-0.03963,0 -0.03963,0 -0.07922,0z" data-paper-data="{&quot;index&quot;:null}" fill="#658542" stroke="none" stroke-width="0.81451"/><path d="M433.97024,289.68842c0.71297,-4.83238 1.18828,-13.5069 1.18828,-13.58612c0,-0.11881 0.07922,-0.15844 0.15844,-0.15844c0.11881,0 0.15844,0.07922 0.15844,0.15844c0,0.07922 -0.47531,8.75373 -1.18828,13.58612c-0.03964,0.07921 -0.07922,0.1188 -0.15844,0.1188c-0.11885,0 -0.15844,-0.07921 -0.15844,-0.1188z" data-paper-data="{&quot;index&quot;:null}" fill="#6f7138" stroke="none" stroke-width="0.81451"/><path d="M432.14816,294.40194c0.55458,-3.01031 1.02989,-9.82316 1.02989,-9.90243c0,-0.07921 0.07922,-0.15843 0.15844,-0.1188c0.07921,0 0.15843,0.07922 0.1188,0.15844c0,0.07922 -0.47531,6.85249 -0.99026,9.90243c-0.1188,0 -0.19802,0 -0.31687,-0.03963z" data-paper-data="{&quot;index&quot;:null}" fill="#6f7138" stroke="none" stroke-width="0.81451"/><path d="M421.49319,257.2481c0.07921,0.07922 0.03963,0.15844 -0.03959,0.19807c-0.03963,0 -0.03963,0 -0.07922,0c-0.03963,0 -0.11885,-0.03963 -0.11885,-0.07922c-0.03959,-0.03963 -1.98047,-3.56489 -2.25776,-7.3278h0.27729c0.27724,3.68369 2.21812,7.16936 2.21812,7.20895z" data-paper-data="{&quot;index&quot;:null}" fill="#6f7138" stroke="none" stroke-width="0.81451"/><path d="M431.63327,272.61667c-0.07922,0 -0.11885,-0.03963 -0.11885,-0.07922c-2.29734,-5.46614 -6.21869,-8.27843 -6.25832,-8.31806c-0.07922,-0.03958 -0.07922,-0.1188 -0.03959,-0.19802c0.03958,-0.07922 0.1188,-0.07922 0.19802,-0.03963c0.03963,0.03963 4.0402,2.8915 6.33754,8.43686c0.03963,0.07922 0,0.15844 -0.07922,0.19807h-0.03959z" data-paper-data="{&quot;index&quot;:null}" fill="#6f7138" stroke="none" stroke-width="0.81451"/><path d="M426.32556,266.95247c-0.03959,0 -0.07922,-0.03959 -0.07922,0c-6.97129,-7.24854 -7.72389,-12.55624 -7.72389,-12.59587c-0.03959,-0.07922 0.03963,-0.15844 0.11885,-0.15844c0.07922,-0.03959 0.15844,0.03963 0.15844,0.11885c0.03958,0.03958 0.75255,5.22848 7.64467,12.39779c0.07922,0.03963 0.03959,0.15844 0,0.19807c-0.03963,0.03959 -0.07922,0.03959 -0.11885,0.03959z" data-paper-data="{&quot;index&quot;:null}" fill="#6f7138" stroke="none" stroke-width="0.81451"/><path d="M434.56436,252.25728c0.39609,3.60452 0.39609,8.39727 0.39609,8.47649c0,0.07922 -0.07922,0.15844 -0.15844,0.15844c-0.07922,0 -0.15844,-0.07922 -0.15844,-0.15844c0,-0.03963 0,-4.91161 -0.39609,-8.51608z" data-paper-data="{&quot;index&quot;:null}" fill="#6f7138" stroke="none" stroke-width="0.81451"/><path d="M433.69296,257.44617c-0.03959,0.11881 -0.07922,0.15844 -0.15844,0.15844c0,0 -0.03959,0 0,0c-0.07922,0 -0.15844,-0.07922 -0.15844,-0.15844c0,-0.03964 -0.15843,-3.01036 -0.39609,-5.46614l0.31687,0.03959c0.23765,2.45583 0.39609,5.38692 0.39609,5.42655z" data-paper-data="{&quot;index&quot;:null}" fill="#6f7138" stroke="none" stroke-width="0.81451"/><path d="M433.25727,280.18207c0.03958,-2.45578 0.43568,-4.87197 0.83177,-7.40697c0.51494,-3.08958 1.02984,-6.25832 0.95062,-9.90243c0,-0.07922 0.07922,-0.15844 0.15844,-0.15844c0.07922,0 0.15844,0.07922 0.15844,0.15844c0.07922,3.64411 -0.43567,6.85249 -0.95062,9.94202c-0.43568,2.53504 -0.79218,4.9116 -0.83177,7.36738c0,0.07922 -0.07922,0.15844 -0.15844,0.15844c-0.07922,0 -0.15844,-0.07922 -0.15844,-0.15844z" data-paper-data="{&quot;index&quot;:null}" fill="#6f7138" stroke="none" stroke-width="0.81451"/><path d="M431.19755,285.88586c-0.11881,0 -0.15844,-0.07922 -0.15844,-0.19802c1.02984,-9.38748 -1.22787,-13.82377 -1.2675,-13.86336c-0.03958,-0.07927 0,-0.15848 0.07922,-0.19807c0.07922,-0.03963 0.15844,0 0.19807,0.07922c0.03958,0.03959 2.33692,4.5551 1.30708,14.06144c0,0.07921 -0.07922,0.1188 -0.15844,0.1188z" data-paper-data="{&quot;index&quot;:null}" fill="#6f7138" stroke="none" stroke-width="0.81451"/><path d="M455.59963,204.45871c10.41557,0.04288 15.34473,7.67239 16.80204,12.30149c4.58632,14.57321 1.07158,43.76252 0,48.86313c-1.07152,5.10066 -3.90047,13.15878 -17.14493,13.71596c-4.54343,0.17145 -14.14459,-2.40028 -16.80204,-14.53032c-2.65751,-12.08721 -0.30007,-42.47665 0.51434,-46.59141c0.81436,-4.11482 4.88628,-13.75886 16.63059,-13.75886z" data-paper-data="{&quot;index&quot;:null}" fill="#00a3a6" stroke="#000000" stroke-width="0"/><path d="M437.5974,258.76532c4.71488,-6.00069 15.64478,-5.01489 19.45953,0.47151c8.52963,-4.97205 13.88742,-0.55723 15.47334,5.87213c-0.04289,0.21435 -0.08572,0.38579 -0.12861,0.55724c-1.07152,5.10061 -3.90047,13.15872 -17.14493,13.71596c-4.54343,0.17145 -14.14459,-2.40027 -16.80204,-14.53037c-0.38578,-1.71448 -0.64296,-3.77186 -0.85729,-6.08646z" data-paper-data="{&quot;index&quot;:null}" fill="#008994" stroke="#000000" stroke-width="0"/><path d="M470.13901,220.65166c0.2327,0.23276 0.37673,0.55423 0.37673,0.90913c0,0.3549 -0.14403,0.67637 -0.37673,0.90913c-0.23276,0.23276 -0.55423,0.37673 -0.90913,0.37673c-0.3549,0 -0.67637,-0.14397 -0.90913,-0.37673c-0.2327,-0.23276 -0.37673,-0.55423 -0.37673,-0.90913c0,-0.3549 0.14403,-0.67637 0.37673,-0.90913c0.23276,-0.2327 0.55423,-0.37673 0.90913,-0.37673c0.3549,0 0.67637,0.14403 0.90913,0.37673z" data-paper-data="{&quot;index&quot;:null}" fill="#00d9f9" stroke="#000000" stroke-width="0"/><path d="M466.11723,221.3302c0.20187,0.20187 0.32659,0.4805 0.32659,0.78783c0,0.30733 -0.12472,0.58591 -0.32659,0.78778c-0.20191,0.20191 -0.4805,0.32663 -0.78783,0.32663c-0.30732,0 -0.58591,-0.12471 -0.78783,-0.32663c-0.20187,-0.20186 -0.32659,-0.48045 -0.32659,-0.78778c0,-0.30732 0.12472,-0.58596 0.32659,-0.78783c0.20191,-0.20186 0.4805,-0.32663 0.78783,-0.32663c0.30732,0 0.58591,0.12476 0.78783,0.32663z" data-paper-data="{&quot;index&quot;:null}" fill="#00d9f9" stroke="#000000" stroke-width="0"/><path d="M468.66365,223.75578c0.21733,0.21729 0.35189,0.51735 0.35189,0.84825c0,0.33091 -0.13455,0.63096 -0.35189,0.84825c-0.21729,0.21733 -0.51735,0.35189 -0.84825,0.35189c-0.33091,0 -0.63091,-0.13455 -0.84825,-0.35189c-0.21728,-0.21729 -0.35189,-0.51735 -0.35189,-0.84825c0,-0.33091 0.1346,-0.63096 0.35189,-0.84825c0.21734,-0.21733 0.51735,-0.35189 0.84825,-0.35189c0.33091,0 0.63096,0.13455 0.84825,0.35189z" data-paper-data="{&quot;index&quot;:null}" fill="#00d9f9" stroke="#000000" stroke-width="0"/><path d="M449.49901,227.01847c0.19417,0.19376 0.31421,0.46162 0.31421,0.75736c0,0.29579 -0.12003,0.56365 -0.31421,0.75741c-0.19371,0.19419 -0.46162,0.31417 -0.75736,0.31417c-0.29574,0 -0.56365,-0.11999 -0.75736,-0.31417c-0.19417,-0.19376 -0.31421,-0.46161 -0.31421,-0.75741c0,-0.29574 0.12003,-0.5636 0.31421,-0.75736c0.19371,-0.19419 0.46162,-0.31417 0.75736,-0.31417c0.29574,0 0.56365,0.11999 0.75736,0.31417z" data-paper-data="{&quot;index&quot;:null}" fill="#00d9f9" stroke="#000000" stroke-width="0"/><path d="M445.75756,228.31679c0.20186,0.20186 0.32663,0.48045 0.32663,0.78778c0,0.30732 -0.12476,0.58591 -0.32663,0.78783c-0.20187,0.20187 -0.4805,0.32659 -0.78783,0.32659c-0.30733,0 -0.58591,-0.12472 -0.78778,-0.32659c-0.20186,-0.20191 -0.32663,-0.4805 -0.32663,-0.78783c0,-0.30733 0.12476,-0.58591 0.32663,-0.78778c0.20186,-0.20191 0.48045,-0.32663 0.78778,-0.32663c0.30732,0 0.58596,0.12471 0.78783,0.32663z" data-paper-data="{&quot;index&quot;:null}" fill="#00d9f9" stroke="#000000" stroke-width="0"/><path d="M448.54878,230.79763c0.22501,0.22502 0.36431,0.53576 0.36431,0.87871c0,0.3429 -0.13929,0.65364 -0.36431,0.87866c-0.22502,0.22501 -0.53582,0.36431 -0.87871,0.36431c-0.3429,0 -0.65364,-0.13929 -0.87866,-0.36431c-0.22501,-0.22502 -0.36431,-0.53577 -0.36431,-0.87866c0,-0.34295 0.13929,-0.65369 0.36431,-0.87871c0.22502,-0.22501 0.53577,-0.36431 0.87866,-0.36431c0.34289,0 0.65369,0.13929 0.87871,0.36431z" data-paper-data="{&quot;index&quot;:null}" fill="#00d9f9" stroke="#000000" stroke-width="0"/><path d="M460.37366,240.78973c0.20187,0.20186 0.32659,0.48045 0.32659,0.78778c0,0.30732 -0.12472,0.58596 -0.32659,0.78783c-0.20191,0.20186 -0.4805,0.32663 -0.78783,0.32663c-0.30732,0 -0.58591,-0.12476 -0.78783,-0.32663c-0.20187,-0.20187 -0.32659,-0.4805 -0.32659,-0.78783c0,-0.30733 0.12472,-0.58591 0.32659,-0.78778c0.20191,-0.20186 0.4805,-0.32663 0.78783,-0.32663c0.30732,0 0.58591,0.12476 0.78783,0.32663z" data-paper-data="{&quot;index&quot;:null}" fill="#00d9f9" stroke="#000000" stroke-width="0"/><path d="M470.22984,245.97824c0.25591,0.25633 0.41452,0.60991 0.41452,0.99996c0,0.39004 -0.15861,0.74368 -0.41452,1.00001c-0.25628,0.25586 -0.60991,0.41447 -0.99996,0.41447c-0.39005,0 -0.74368,-0.15861 -0.99996,-0.41447c-0.25591,-0.25633 -0.41452,-0.60996 -0.41452,-1.00001c0,-0.39005 0.15861,-0.74363 0.41452,-0.99996c0.25628,-0.25592 0.60991,-0.41447 0.99996,-0.41447c0.39005,0 0.74368,0.15856 0.99996,0.41447z" data-paper-data="{&quot;index&quot;:null}" fill="#00d9f9" stroke="#000000" stroke-width="0"/><path d="M467.03489,248.48738c0.21733,0.21734 0.35189,0.51735 0.35189,0.84825c0,0.33091 -0.13455,0.63096 -0.35189,0.84825c-0.21729,0.21733 -0.51735,0.35189 -0.84825,0.35189c-0.33091,0 -0.63091,-0.13455 -0.84825,-0.35189c-0.21733,-0.21729 -0.35189,-0.51735 -0.35189,-0.84825c0,-0.33091 0.13455,-0.63091 0.35189,-0.84825c0.21734,-0.21733 0.51735,-0.35189 0.84825,-0.35189c0.33091,0 0.63096,0.13455 0.84825,0.35189z" data-paper-data="{&quot;index&quot;:null}" fill="#00d9f9" stroke="#000000" stroke-width="0"/><path d="M446.09831,207.5735c0.25591,0.25633 0.41452,0.60996 0.41452,1.00001c0,0.39005 -0.15861,0.74363 -0.41452,0.99996c-0.25628,0.25592 -0.60991,0.41447 -0.99996,0.41447c-0.39005,0 -0.74368,-0.15856 -0.99996,-0.41447c-0.25591,-0.25633 -0.41452,-0.60991 -0.41452,-0.99996c0,-0.39004 0.15861,-0.74368 0.41452,-1.00001c0.25628,-0.25586 0.60991,-0.41447 0.99996,-0.41447c0.39005,0 0.74368,0.15861 0.99996,0.41447z" data-paper-data="{&quot;index&quot;:null}" fill="#00d9f9" stroke="#000000" stroke-width="0"/><path d="M448.26629,210.80619c0.24091,0.24048 0.38963,0.57265 0.38963,0.93912c0,0.36647 -0.14872,0.69868 -0.38963,0.93912c-0.24044,0.24087 -0.57265,0.38963 -0.93912,0.38963c-0.36647,0 -0.69863,-0.14877 -0.93912,-0.38963c-0.24085,-0.24044 -0.38957,-0.57265 -0.38957,-0.93912c0,-0.36647 0.14871,-0.69863 0.38957,-0.93912c0.24048,-0.24087 0.57265,-0.38963 0.93912,-0.38963c0.36647,0 0.69868,0.14877 0.93912,0.38963z" data-paper-data="{&quot;index&quot;:null}" fill="#00d9f9" stroke="#000000" stroke-width="0"/><path d="M445.46056,213.14046c0.27942,0.27949 0.45219,0.66522 0.45219,1.09089c0,0.42563 -0.17275,0.81136 -0.45219,1.09084c-0.27949,0.27942 -0.66527,0.45219 -1.09089,0.45219c-0.42563,0 -0.81136,-0.17275 -1.09084,-0.45219c-0.27942,-0.27948 -0.45219,-0.66522 -0.45219,-1.09084c0,-0.42568 0.17275,-0.81141 0.45219,-1.09089c0.27948,-0.27942 0.66522,-0.45219 1.09084,-0.45219c0.42562,0 0.81141,0.17275 1.09089,0.45219z" data-paper-data="{&quot;index&quot;:null}" fill="#00d9f9" stroke="#000000" stroke-width="0"/><path d="M460.31453,231.16194c-0.21433,0 -0.42862,-0.17145 -0.42862,-0.42862c-0.30007,-6.72937 -2.27172,-13.88742 -2.27172,-13.97314c-0.04288,-0.21428 0.08572,-0.47145 0.30001,-0.51434c0.21433,-0.04283 0.4715,0.08573 0.51434,0.30006c0.04288,0.08574 2.01454,7.32944 2.3146,14.18743c0,0.21433 -0.17145,0.42862 -0.42862,0.42862v0z" data-paper-data="{&quot;index&quot;:null}" fill="#658542" stroke="#000000" stroke-width="0"/><path d="M459.28582,222.7181c-0.04289,0 -0.08572,0 -0.12861,0c-4.92916,-3.17185 -6.60082,-5.57213 -6.68654,-5.65785c-0.08572,-0.08573 -0.04283,-0.21434 0.04289,-0.30006c0.08572,-0.08572 0.21429,-0.04283 0.30001,0.04289c0,0 1.71449,2.40027 6.55798,5.52923c0.12856,0.08573 0.12856,0.21434 0.08572,0.30006c-0.04289,0.04283 -0.08573,0.08572 -0.17145,0.08572z" data-paper-data="{&quot;index&quot;:null}" fill="#658542" stroke="#000000" stroke-width="0"/><path d="M467.90112,241.62037c-0.08573,0 -0.17145,-0.04288 -0.21429,-0.08572c-0.21433,-0.1286 -0.25717,-0.38577 -0.12861,-0.60006c2.14316,-3.3004 4.28626,-9.6012 4.3291,-9.64404c0.08573,-0.21433 0.34291,-0.34289 0.55724,-0.25717c0.21428,0.08573 0.34289,0.34291 0.25717,0.55724c-0.08573,0.25717 -2.22883,6.4722 -4.45771,9.85833c-0.08572,0.08573 -0.21428,0.17145 -0.34289,0.17145z" data-paper-data="{&quot;index&quot;:null}" fill="#658542" stroke="#000000" stroke-width="0"/><path d="M454.18515,253.19326c-0.04283,0 -0.08572,0 -0.08572,0c-0.21429,-0.04288 -0.38573,-0.30005 -0.30001,-0.51434c2.05739,-7.11515 2.40028,-16.24486 2.40028,-16.33058c0,-0.25717 0.17145,-0.42862 0.42862,-0.42862c0.25717,0 0.42862,0.17145 0.42862,0.42862c0,0.08573 -0.34289,9.30115 -2.44316,16.54487c-0.08573,0.17145 -0.25717,0.30006 -0.42862,0.30006z" data-paper-data="{&quot;index&quot;:null}" fill="#658542" stroke="#000000" stroke-width="0"/><path d="M455.72826,247.23536c-0.08573,0 -0.12861,0 -0.17145,-0.04284c-3.04323,-3.34329 -6.17219,-9.30114 -6.21508,-9.34403c-0.04284,-0.12856 0,-0.25717 0.08572,-0.30001c0.12861,-0.04289 0.25717,0 0.30006,0.08572c0,0.04283 3.12896,5.95785 6.1293,9.25826c0.08572,0.08573 0.08572,0.21434 0,0.30006c-0.04284,0.04284 -0.08572,0.04284 -0.12856,0.04284z" data-paper-data="{&quot;index&quot;:null}" fill="#658542" stroke="#000000" stroke-width="0"/><path d="M460.95742,265.49477c-0.12857,0 -0.21429,-0.12861 -0.21429,-0.17145c-0.12861,-2.70034 0.38573,-10.11556 0.38573,-10.20128c0,-0.12857 0.08572,-0.21429 0.21433,-0.21429c0.12857,0 0.21429,0.08573 0.21429,0.21429c0,0.04289 -0.51434,7.45806 -0.38573,10.15839c0,0.12861 -0.08572,0.21433 -0.21433,0.21433v0z" data-paper-data="{&quot;index&quot;:null}" fill="#597933" stroke="#000000" stroke-width="0"/><path d="M446.08418,261.46567c-0.08573,0 -0.21434,-0.04284 -0.30006,-0.12856c-0.17144,-0.17145 -3.77185,-3.81475 -5.4435,-7.32949c-0.08572,-0.21429 0,-0.47146 0.21429,-0.55718c0.21435,-0.08572 0.47152,0 0.55724,0.21429c1.62876,3.38613 5.22922,7.02943 5.27206,7.07232c0.17145,0.17144 0.17145,0.42861 0,0.60006c-0.08572,0.08572 -0.17145,0.12856 -0.30001,0.12856z" data-paper-data="{&quot;index&quot;:null}" fill="#597933" stroke="#000000" stroke-width="0"/><path d="M451.31339,251.60735c1.54309,7.88667 5.52929,20.0596 5.4864,20.01671c3.17185,-2.31454 7.37233,-7.80094 7.37233,-7.80094l1.92882,3.34329c-4.28626,6.38648 -7.92956,9.21537 -7.92956,9.21537c0.85729,6.51508 4.28626,19.15952 4.28626,19.15952l-4.50055,-1.07158c-5.22922,-9.4297 -10.92991,-44.7912 -10.92991,-44.7912l4.2862,1.92882z" data-paper-data="{&quot;index&quot;:null}" fill="#668543" stroke="#000000" stroke-width="0"/><path d="M465.71513,266.43774c-1.54303,2.01454 -3.90047,4.62915 -3.94331,4.67199c-0.04289,0.04289 -0.08572,0.04289 -0.12861,0.04289c-0.04284,0 -0.08572,0 -0.12856,-0.04289c-0.08572,-0.04284 -0.08572,-0.17145 0,-0.21429c0.04284,-0.04289 2.48601,-2.74323 3.9862,-4.75772z" data-paper-data="{&quot;index&quot;:null}" fill="#6f7138" stroke="#000000" stroke-width="0"/><path d="M457.91417,273.25286c0,0.04284 -0.04283,0.04284 -0.08572,0.04284c-0.04284,0 -0.08572,-0.04284 -0.12856,-0.04284c-0.04288,-0.08572 -0.04288,-0.17144 0.04284,-0.21433c0.04289,-0.04284 3.77192,-2.95751 7.11516,-8.10101l0.17145,0.30006c-3.34325,5.10061 -7.07227,8.01529 -7.11516,8.01529z" data-paper-data="{&quot;index&quot;:null}" fill="#6f7138" stroke="#000000" stroke-width="0"/><path d="M460.35734,293.01242c-0.08573,0 -0.12856,-0.04289 -0.17145,-0.12861c-1.41447,-4.58627 -3.90047,-16.80204 -3.94331,-16.93065c0,-0.08573 0.04284,-0.17145 0.12856,-0.17145c0.08573,0 0.17145,0.04289 0.17145,0.12861c0.04289,0.12856 2.52889,12.34439 3.94336,16.88776c0.04284,0.08572 0,0.17144 -0.08572,0.21433h-0.04289z" data-paper-data="{&quot;index&quot;:null}" fill="#6f7138" stroke="#000000" stroke-width="0"/><path d="M457.6999,288.9405c-0.08572,0 -0.12861,-0.04288 -0.21433,-0.08572c-1.92876,-6.08647 -3.68614,-13.15879 -3.68614,-13.24451c0,-0.08573 0.04284,-0.21429 0.12856,-0.21429c0.12861,0 0.21433,0.04284 0.21433,0.12856c0,0.08572 1.75738,7.11516 3.68614,13.20162c0.04289,0.08572 0,0.17144 -0.08572,0.21433h-0.04284z" data-paper-data="{&quot;index&quot;:null}" fill="#6f7138" stroke="#000000" stroke-width="0"/><path d="M458.21424,290.91214c-0.04289,-0.08573 0,-0.17145 0.08572,-0.21429c0.08573,0 0.17145,0.04284 0.21429,0.12856c0.30006,1.20014 0.90013,2.9575 1.32875,4.07192l-0.38573,-0.08572c-0.38578,-1.11441 -0.98585,-2.78605 -1.24302,-3.90047z" data-paper-data="{&quot;index&quot;:null}" fill="#6f7138" stroke="#000000" stroke-width="0"/><path d="M455.0424,274.45302c-0.08572,0 -0.12856,-0.04289 -0.12856,-0.12861c-2.1431,-7.67234 -3.08612,-15.38762 -3.08612,-15.47334c-0.04284,-0.08573 0.04289,-0.17145 0.12861,-0.17145c0.08573,0 0.17145,0.04289 0.17145,0.12861c0.04289,0.04284 0.94296,7.75811 3.08607,15.43045c0,0.08572 -0.04284,0.17144 -0.17145,0.21433v0z" data-paper-data="{&quot;index&quot;:null}" fill="#6f7138" stroke="#000000" stroke-width="0"/><path d="M450.92765,257.00801c0.04284,0.08573 -0.04289,0.17145 -0.12861,0.17145v0c-0.08573,0 -0.17145,-0.04289 -0.17145,-0.12861c0,-0.04284 -0.47147,-3.12896 -0.6858,-6.04358l0.34289,0.17145c0.21434,2.82889 0.64296,5.7864 0.64296,5.82929z" data-paper-data="{&quot;index&quot;:null}" fill="#6f7138" stroke="#000000" stroke-width="0"/><path d="M451.44198,265.75192c0.04284,0 0,0 0,0c-0.08573,0 -0.12861,-0.04289 -0.17145,-0.12861c0,-0.08573 -1.62875,-8.52957 -2.44316,-15.08755l0.34289,0.17145c0.81441,6.51509 2.35744,14.78755 2.40028,14.87327c0.04289,0.04284 0,0.12856 -0.12856,0.17145z" data-paper-data="{&quot;index&quot;:null}" fill="#6f7138" stroke="#000000" stroke-width="0"/></g></g></svg>