<svg version="1.1" xmlns="http://www.w3.org/2000/svg" xmlns:xlink="http://www.w3.org/1999/xlink" width="47.579" height="90.87184" viewBox="0,0,47.579,90.87184"><g transform="translate(-427.1207,-204.57703)"><g data-paper-data="{&quot;isPaintingLayer&quot;:true}" fill-rule="nonzero" stroke="none" stroke-width="0.81451" stroke-linecap="butt" stroke-linejoin="miter" stroke-miterlimit="10" stroke-dasharray="" stroke-dashoffset="0" style="mix-blend-mode: normal"><path d="M428.05192,227.55065c1.34672,-12.59587 11.52639,-18.53731 22.02298,-18.53731c11.36795,0 19.92362,8.7141 20.67622,18.89377c0.39609,5.22848 0.75255,22.65673 -1.18828,30.49943c-1.94088,7.8427 -8.43686,16.63607 -19.9633,17.07174c-18.73534,0.71302 -21.66643,-13.90295 -22.26059,-20.24049c-0.23766,-2.45583 -0.55453,-15.88346 0.71297,-27.68714z" fill="#00a3a6"/><path d="M465.52264,254.28717c-0.11885,0 -0.23766,-0.03963 -0.31687,-0.15844c-0.15844,-0.15844 -0.11885,-0.43573 0.03959,-0.55458c0.03963,-0.03959 5.62457,-4.79275 8.71415,-9.46666c0.1188,-0.19807 0.35646,-0.2377 0.55453,-0.11885c0.19802,0.11885 0.23766,0.35651 0.1188,0.55453c-3.12916,4.75317 -8.79332,9.58556 -8.83291,9.62514c-0.07927,0.07922 -0.19807,0.11885 -0.27729,0.11885z" fill="#597933"/><path d="M451.58006,216.14306c-0.15844,0 -0.31687,-0.07922 -0.35651,-0.23766c-2.17854,-5.10963 -2.61422,-10.85305 -2.61422,-10.89264c0,-0.23766 0.15844,-0.39609 0.35646,-0.43573c0.23766,0 0.39609,0.15844 0.43573,0.35651c0,0.03959 0.43573,5.66416 2.57463,10.65498c0.07922,0.19807 0,0.43573 -0.19807,0.51495c-0.1188,0 -0.15844,0.03959 -0.19802,0.03959z" fill="#597933"/><g><path d="M470.19659,254.72285c-0.19807,1.38635 -0.39609,2.65385 -0.67338,3.72333c-1.94088,7.8427 -8.43686,16.63602 -19.96325,17.07174c-18.41846,0.67338 -21.54762,-13.46727 -22.22101,-19.96325c5.18885,5.70379 12.67508,9.30827 21.07231,9.30827c8.79337,0 16.63607,-3.96098 21.78533,-10.14009z" fill="#008994"/><path d="M449.95605,209.05297c0.35651,1.90125 0.99026,4.27781 1.94088,6.53556c0.07922,0.19807 0,0.43573 -0.19807,0.51495c-0.03959,0.03959 -0.1188,0.03959 -0.15844,0.03959c-0.15844,0 -0.27724,-0.07922 -0.35646,-0.23766c-0.99026,-2.37656 -1.62401,-4.83239 -2.0201,-6.85244c0.27724,-0.03963 0.55453,-0.03963 0.79219,0z" fill="#658542"/><path d="M465.7603,254.20795c-0.03963,0.03959 -0.15844,0.07922 -0.23766,0.07922c-0.11885,0 -0.23766,-0.07922 -0.31687,-0.15844c-0.15844,-0.15844 -0.11885,-0.39609 0.03959,-0.55458c0.03963,-0.03959 2.85192,-2.41615 5.54536,-5.4265c-0.03959,0.43573 -0.03959,0.87141 -0.07922,1.2675c-2.49541,2.73307 -4.91156,4.75317 -4.95119,4.7928z" fill="#658542"/><path d="M466.82977,241.57245c-0.03963,0.03963 -0.07922,0.03963 -0.11885,0.03963c-0.07922,0 -0.1188,-0.03963 -0.15844,-0.07922c-0.07922,-0.07922 -0.03959,-0.19807 0.03963,-0.27729c0,-0.03959 2.21812,-1.74281 4.43625,-4.07979c0,0.15844 0,0.35646 0,0.55453c-2.1389,2.21812 -4.159,3.80254 -4.19859,3.84213z" fill="#658542"/></g><path d="M443.06398,253.53457l4.39666,-0.7526c0,0 -0.83177,9.58556 -0.03959,16.59643c3.4064,-5.34728 9.22905,-7.24853 11.48676,-18.37883l3.52526,0.23766c-0.39609,9.70436 -8.00113,14.73477 -11.1303,21.38919c-3.12916,6.65442 -1.82203,22.30023 -1.82203,22.30023c0,0 -1.78244,0.59416 -4.71354,0.51495c-2.49541,-12.35821 -3.1688,-32.12344 -1.70323,-41.90702z" fill="#668543"/><path d="M440.6082,231.78887c-0.03963,0 -0.03963,0 -0.07922,0c-3.84218,-1.82203 -7.44665,-6.29791 -7.48624,-6.33754c-0.07922,-0.07922 -0.03963,-0.19802 0.03959,-0.27724c0.07922,-0.07922 0.19807,-0.03963 0.27729,0.03959c0.03959,0.03963 3.60447,4.47588 7.36738,6.25832c0.07922,0.03963 0.15844,0.15844 0.07922,0.27729c-0.03959,-0.03963 -0.1188,0.03959 -0.19802,0.03959z" fill="#658542"/><path d="M452.53068,227.39221c-0.07922,0 -0.19807,-0.03963 -0.27729,-0.11885c-0.15844,-0.15844 -0.15844,-0.39609 -0.03959,-0.55453c3.04994,-3.36682 5.26807,-9.30827 5.26807,-9.34785c0.07922,-0.19807 0.31687,-0.31687 0.51495,-0.23766c0.19802,0.07922 0.31687,0.31687 0.23766,0.5149c-0.07922,0.23766 -2.29739,6.09989 -5.42655,9.58556c-0.07922,0.07922 -0.19802,0.15844 -0.27724,0.15844z" fill="#658542"/><path d="M436.09269,231.86809c0.36045,0 0.68724,0.14657 0.92407,0.38301c0.23649,0.23688 0.38306,0.56367 0.38306,0.92412c0,0.36045 -0.14657,0.68719 -0.38306,0.92407c-0.23683,0.23649 -0.56362,0.38301 -0.92407,0.38301c-0.36045,0 -0.68724,-0.14652 -0.92412,-0.38301c-0.23644,-0.23688 -0.38301,-0.56362 -0.38301,-0.92407c0,-0.36045 0.14657,-0.68724 0.38301,-0.92412c0.23688,-0.23644 0.56367,-0.38301 0.92412,-0.38301z" fill="#00d9f9"/><path d="M434.07258,234.79923c0.32796,0 0.62504,0.13305 0.84014,0.34814c0.21504,0.21509 0.34814,0.51217 0.34814,0.84014c0,0.32796 -0.1331,0.62504 -0.34814,0.84009c-0.21509,0.21509 -0.51217,0.34819 -0.84014,0.34819c-0.32796,0 -0.62504,-0.1331 -0.84014,-0.34819c-0.21504,-0.21504 -0.34814,-0.51213 -0.34814,-0.84009c0,-0.32796 0.1331,-0.62504 0.34814,-0.84014c0.21509,-0.21509 0.51217,-0.34814 0.84014,-0.34814z" fill="#00d9f9"/><path d="M437.16216,235.31413c0.32796,0 0.625,0.1331 0.84009,0.34819c0.21509,0.21504 0.34819,0.51213 0.34819,0.84009c0,0.32796 -0.1331,0.62504 -0.34819,0.84014c-0.21509,0.21509 -0.51213,0.34819 -0.84009,0.34819c-0.32801,0 -0.62504,-0.1331 -0.84014,-0.34819c-0.21509,-0.21509 -0.34819,-0.51217 -0.34819,-0.84014c0,-0.32796 0.1331,-0.62504 0.34819,-0.84009c0.21509,-0.21509 0.51213,-0.34819 0.84014,-0.34819z" fill="#00d9f9"/><path d="M457.36307,225.88706c0.32796,0 0.62504,0.13305 0.84009,0.34814c0.21509,0.21509 0.34819,0.51217 0.34819,0.84014c0,0.32796 -0.1331,0.62504 -0.34819,0.84014c-0.21504,0.21504 -0.51213,0.34814 -0.84009,0.34814c-0.32796,0 -0.62504,-0.1331 -0.84014,-0.34814c-0.21509,-0.21509 -0.34814,-0.51217 -0.34814,-0.84014c0,-0.32796 0.13305,-0.62504 0.34814,-0.84014c0.21509,-0.21509 0.51217,-0.34814 0.84014,-0.34814z" fill="#00d9f9"/><path d="M461.04676,226.83768c0.32796,0 0.62504,0.1331 0.84009,0.34814c0.21509,0.21509 0.34819,0.51217 0.34819,0.84014c0,0.32796 -0.1331,0.62504 -0.34819,0.84014c-0.21504,0.21504 -0.51213,0.34814 -0.84009,0.34814c-0.32796,0 -0.62504,-0.1331 -0.84014,-0.34814c-0.21509,-0.21509 -0.34814,-0.51217 -0.34814,-0.84014c0,-0.32796 0.13305,-0.62504 0.34814,-0.84014c0.21509,-0.21504 0.51217,-0.34814 0.84014,-0.34814z" fill="#00d9f9"/><path d="M457.99682,229.68955c0.30579,0 0.58303,0.1244 0.78387,0.32519c0.20079,0.20084 0.32519,0.47808 0.32519,0.78387c0,0.30579 -0.1244,0.58308 -0.32519,0.78387c-0.20084,0.20084 -0.47808,0.32524 -0.78387,0.32524c-0.30579,0 -0.58308,-0.1244 -0.78387,-0.32524c-0.20084,-0.20079 -0.32519,-0.47808 -0.32519,-0.78387c0,-0.30579 0.12435,-0.58303 0.32519,-0.78387c0.20079,-0.20079 0.47808,-0.32519 0.78387,-0.32519z" fill="#00d9f9"/><path d="M438.23159,209.01333c0.30579,0 0.58308,0.1244 0.78387,0.32519c0.20084,0.20084 0.32519,0.47808 0.32519,0.78387c0,0.30579 -0.12435,0.58308 -0.32519,0.78387c-0.20079,0.20084 -0.47808,0.32519 -0.78387,0.32519c-0.30579,0 -0.58303,-0.12435 -0.78387,-0.32519c-0.20079,-0.20079 -0.32519,-0.47808 -0.32519,-0.78387c0,-0.30579 0.1244,-0.58303 0.32519,-0.78387c0.20084,-0.20079 0.47808,-0.32519 0.78387,-0.32519z" fill="#00d9f9"/><path d="M441.4796,209.52828c0.32796,0 0.62504,0.13305 0.84009,0.34814c0.21509,0.21509 0.34819,0.51217 0.34819,0.84014c0,0.32796 -0.1331,0.62504 -0.34819,0.84009c-0.21504,0.21509 -0.51213,0.34819 -0.84009,0.34819c-0.32796,0 -0.62504,-0.1331 -0.84014,-0.34819c-0.21509,-0.21504 -0.34814,-0.51213 -0.34814,-0.84009c0,-0.32796 0.13305,-0.62504 0.34814,-0.84014c0.21509,-0.21509 0.51217,-0.34814 0.84014,-0.34814z" fill="#00d9f9"/><path d="M439.4595,212.65744c0.31687,0 0.60404,0.12872 0.81198,0.33667c0.20794,0.20794 0.33672,0.4951 0.33672,0.81198c0,0.31687 -0.12877,0.60404 -0.33672,0.81203c-0.20794,0.20794 -0.4951,0.33667 -0.81198,0.33667c-0.31687,0 -0.60404,-0.12872 -0.81198,-0.33667c-0.20799,-0.20799 -0.33672,-0.49515 -0.33672,-0.81203c0,-0.31687 0.12872,-0.60404 0.33672,-0.81198c0.20794,-0.20794 0.4951,-0.33667 0.81198,-0.33667z" fill="#00d9f9"/><path d="M458.63057,245.92952c-0.07922,0 -0.15844,-0.03963 -0.23766,-0.07922c-3.84213,-2.7727 -7.4466,-9.98165 -7.60504,-10.25889c-0.07922,-0.19807 0,-0.43573 0.19802,-0.51495c0.19807,-0.07922 0.43573,0 0.51495,0.19807c0.03959,0.07922 3.64406,7.28817 7.36738,9.9816c0.15844,0.11885 0.19802,0.35651 0.07922,0.55453c-0.07922,0.03963 -0.19807,0.11885 -0.31687,0.11885z" fill="#658542"/><path d="M466.71092,241.61208c-0.03959,0 -0.1188,-0.03963 -0.15844,-0.07922c-0.07922,-0.07922 -0.03959,-0.19807 0.03963,-0.27729c0.03959,-0.03959 4.47588,-3.48562 7.12973,-7.3278c0.07922,-0.07922 0.19802,-0.1188 0.27724,-0.03959c0.07922,0.07922 0.11885,0.19802 0.03963,0.27724c-2.69348,3.88176 -7.16936,7.36743 -7.20895,7.40702c-0.03963,0 -0.07922,0.03963 -0.11885,0.03963z" fill="#597933"/><path d="M439.89518,255.00014c-0.07922,0 -0.1188,0 -0.15844,-0.03963c-3.92135,-1.98047 -8.87254,-9.34785 -9.1102,-9.66473c-0.11885,-0.19807 -0.07922,-0.43573 0.11885,-0.55453c0.19802,-0.11885 0.43568,-0.07922 0.55453,0.1188c0.03959,0.07922 5.03041,7.52582 8.79332,9.38749c0.19807,0.07922 0.27729,0.31687 0.15844,0.51495c-0.03959,0.15844 -0.19807,0.23766 -0.35651,0.23766z" fill="#658542"/><path d="M435.49852,251.07879c-0.1188,0 -0.19802,-0.07922 -0.19802,-0.19807c-0.23766,-3.04994 -1.5052,-6.02067 -1.5052,-6.06025c-0.03959,-0.11885 0,-0.19807 0.11885,-0.27729c0.11885,-0.07922 0.19807,0 0.27729,0.11885c0,0.03959 1.30708,3.04994 1.54474,6.1791c-0.03959,0.1188 -0.1188,0.23766 -0.23766,0.23766z" fill="#658542"/><path d="M438.15237,260.42664c-0.03959,0 -0.03959,0 -0.07922,0c-3.8025,-1.50515 -7.76348,-4.27786 -7.80311,-4.31744c-0.07922,-0.07922 -0.1188,-0.19807 -0.03959,-0.27729c0.07922,-0.07922 0.19802,-0.1188 0.27724,-0.03959c0.03963,0.03959 3.96098,2.77265 7.72389,4.27786c0.11885,0.03959 0.15844,0.15844 0.11885,0.23766c-0.03963,0.07922 -0.11885,0.1188 -0.19807,0.1188z" fill="#658542"/><path d="M444.96522,290.80722c-0.07922,0 -0.1188,-0.03959 -0.15844,-0.1188c-0.71297,-4.83239 -1.18828,-13.5069 -1.18828,-13.58612c0,-0.07922 0.03963,-0.15844 0.15844,-0.15844c0.07922,0 0.15844,0.03963 0.15844,0.15844c0,0.07922 0.47531,8.75374 1.18828,13.58612c0,0.03959 -0.03959,0.1188 -0.15844,0.1188z" fill="#6f7138"/><path d="M446.94574,295.40195c-0.11885,0.03963 -0.19807,0.03963 -0.31687,0.03963c-0.51495,-3.04994 -0.99026,-9.82321 -0.99026,-9.90243c-0.03963,-0.07922 0.03959,-0.15844 0.1188,-0.15844c0.07922,-0.03963 0.15844,0.03959 0.15844,0.1188c0,0.07927 0.47531,6.89212 1.02989,9.90243z" fill="#6f7138"/><path d="M457.60072,258.2481c0,-0.03959 1.94088,-3.52526 2.21812,-7.20895h0.27729c-0.27729,3.76291 -2.21817,7.28817 -2.25776,7.3278c0,0.03959 -0.07922,0.07922 -0.11885,0.07922c-0.03959,0 -0.03959,0 -0.07922,0c-0.07922,-0.03963 -0.1188,-0.11885 -0.03959,-0.19807z" fill="#6f7138"/><path d="M447.46064,273.61667h-0.03959c-0.07922,-0.03963 -0.11885,-0.11885 -0.07922,-0.19807c2.29734,-5.54536 6.29791,-8.39723 6.33754,-8.43686c0.07922,-0.03959 0.15844,-0.03959 0.19802,0.03963c0.03963,0.07922 0.03963,0.15844 -0.03959,0.19802c-0.03963,0.03963 -3.96098,2.85192 -6.25832,8.31806c0,0.03959 -0.03963,0.07922 -0.11885,0.07922z" fill="#6f7138"/><path d="M452.76834,267.95246c-0.03963,0 -0.07922,0 -0.11885,-0.03959c-0.03959,-0.03963 -0.07922,-0.15844 0,-0.19807c6.89212,-7.16931 7.60509,-12.35821 7.64467,-12.39779c0,-0.07922 0.07922,-0.15844 0.15844,-0.11885c0.07922,0 0.15844,0.07922 0.11885,0.15844c0,0.03963 -0.7526,5.34733 -7.72389,12.59587c0,-0.03959 -0.03963,0 -0.07922,0z" fill="#6f7138"/><path d="M444.84642,253.21769c-0.39609,3.60447 -0.39609,8.47645 -0.39609,8.51608c0,0.07922 -0.07922,0.15844 -0.15844,0.15844c-0.07922,0 -0.15844,-0.07922 -0.15844,-0.15844c0,-0.07922 0,-4.87197 0.39609,-8.47649z" fill="#6f7138"/><path d="M445.40095,258.44617c0,-0.03963 0.15844,-2.97072 0.39609,-5.42655l0.31687,-0.03959c-0.23766,2.45578 -0.39609,5.4265 -0.39609,5.46614c0,0.07922 -0.07922,0.15844 -0.15844,0.15844c0.03959,0 0,0 0,0c-0.07922,0 -0.11885,-0.03963 -0.15844,-0.15844z" fill="#6f7138"/><path d="M445.67819,281.34051c-0.07922,0 -0.15844,-0.07922 -0.15844,-0.15844c-0.03959,-2.45578 -0.39609,-4.83234 -0.83177,-7.36738c-0.51495,-3.08953 -1.02984,-6.29791 -0.95062,-9.94202c0,-0.07922 0.07922,-0.15844 0.15844,-0.15844c0.07922,0 0.15844,0.07922 0.15844,0.15844c-0.07922,3.64411 0.43568,6.81285 0.95062,9.90243c0.39609,2.535 0.79219,4.95119 0.83177,7.40697c0,0.07922 -0.07922,0.15844 -0.15844,0.15844z" fill="#6f7138"/><path d="M447.89636,286.88587c-0.07922,0 -0.15844,-0.03959 -0.15844,-0.1188c-1.02984,-9.50634 1.2675,-14.02185 1.30708,-14.06144c0.03963,-0.07922 0.11885,-0.11885 0.19807,-0.07922c0.07922,0.03959 0.1188,0.1188 0.07922,0.19807c-0.03963,0.03959 -2.29734,4.47588 -1.2675,13.86336c0,0.1188 -0.03963,0.19802 -0.15844,0.19802z" fill="#6f7138"/></g></g></svg>