<svg version="1.1" xmlns="http://www.w3.org/2000/svg" xmlns:xlink="http://www.w3.org/1999/xlink" width="76.579" height="101.0826" viewBox="0,0,76.579,101.0826"><g transform="translate(-399.12069,-195.4587)"><g data-paper-data="{&quot;isPaintingLayer&quot;:true}" fill-rule="nonzero" stroke-linecap="butt" stroke-linejoin="miter" stroke-miterlimit="10" stroke-dasharray="" stroke-dashoffset="0" style="mix-blend-mode: normal"><path d="M446.48144,255.23779c-0.59416,6.33754 -3.52525,20.95351 -22.26059,20.24049c-11.52644,-0.43567 -18.02242,-9.22904 -19.9633,-17.07174c-1.94083,-7.8427 -1.58437,-25.27095 -1.18828,-30.49943c0.7526,-10.17967 9.30827,-18.89377 20.67622,-18.89377c10.49659,0 20.67626,5.94144 22.02298,18.53731c1.2675,11.80368 0.95063,25.23131 0.71297,27.68714z" data-paper-data="{&quot;index&quot;:null}" fill="#00a3a6" stroke="none" stroke-width="0.81451"/><path d="M408.29775,254.28716c-0.07922,0 -0.19802,-0.03963 -0.27729,-0.11885c-0.03959,-0.03958 -5.70375,-4.87197 -8.83291,-9.62514c-0.11886,-0.19802 -0.07922,-0.43568 0.1188,-0.55453c0.19807,-0.11885 0.43573,-0.07922 0.55453,0.11885c3.08958,4.67391 8.67452,9.42707 8.71415,9.46666c0.15844,0.11885 0.19803,0.39614 0.03959,0.55458c-0.07921,0.11881 -0.19802,0.15844 -0.31687,0.15844z" data-paper-data="{&quot;index&quot;:null}" fill="#597933" stroke="none" stroke-width="0.81451"/><path d="M422.04231,216.10347c-0.19807,-0.07922 -0.27729,-0.31688 -0.19807,-0.51495c2.1389,-4.99082 2.57463,-10.61539 2.57463,-10.65498c0.03964,-0.19807 0.19807,-0.35651 0.43573,-0.35651c0.19802,0.03964 0.35646,0.19807 0.35646,0.43573c0,0.03959 -0.43568,5.78301 -2.61422,10.89264c-0.03964,0.15844 -0.19807,0.23766 -0.35651,0.23766c-0.03958,0 -0.07922,-0.03959 -0.19802,-0.03959z" data-paper-data="{&quot;index&quot;:null}" fill="#597933" stroke="none" stroke-width="0.81451"/><g data-paper-data="{&quot;index&quot;:null}" stroke="none" stroke-width="0.81451"><path d="M425.40913,264.86294c8.39723,0 15.88346,-3.60448 21.07231,-9.30827c-0.67339,6.49598 -3.80255,20.63663 -22.22101,19.96325c-11.52639,-0.43572 -18.02237,-9.22904 -19.96325,-17.07174c-0.27729,-1.06948 -0.47531,-2.33698 -0.67338,-3.72333c5.14926,6.17911 12.99196,10.14009 21.78533,10.14009z" fill="#008994"/><path d="M424.65653,209.05297c-0.39609,2.02005 -1.02984,4.47588 -2.0201,6.85244c-0.07922,0.15844 -0.19802,0.23766 -0.35646,0.23766c-0.03964,0 -0.11885,0 -0.15844,-0.03959c-0.19807,-0.07922 -0.27729,-0.31688 -0.19807,-0.51495c0.95062,-2.25775 1.58437,-4.63431 1.94088,-6.53556c0.23766,-0.03963 0.51495,-0.03963 0.79219,0z" fill="#658542"/><path d="M408.06008,254.20795c-0.03963,-0.03963 -2.45578,-2.05973 -4.95119,-4.7928c-0.03963,-0.39609 -0.03963,-0.83177 -0.07922,-1.2675c2.69344,3.01035 5.50573,5.38691 5.54536,5.4265c0.15844,0.15849 0.19803,0.39614 0.03959,0.55458c-0.07921,0.07922 -0.19802,0.15844 -0.31687,0.15844c-0.07922,0 -0.19803,-0.03963 -0.23766,-0.07922z" fill="#658542"/><path d="M406.99062,241.57244c-0.03959,-0.03959 -2.05969,-1.62401 -4.19859,-3.84213c0,-0.19807 0,-0.39609 0,-0.55453c2.21813,2.33698 4.43625,4.0402 4.43625,4.07979c0.07922,0.07922 0.11885,0.19807 0.03963,0.27729c-0.03964,0.03959 -0.07922,0.07922 -0.15844,0.07922c-0.03963,0 -0.07922,0 -0.11885,-0.03963z" fill="#658542"/></g><path d="M430.75642,253.53458c1.46557,9.78358 0.79218,29.54881 -1.70323,41.90702c-2.9311,0.07921 -4.71354,-0.51495 -4.71354,-0.51495c0,0 1.30713,-15.64581 -1.82203,-22.30023c-3.12917,-6.65442 -10.73421,-11.68483 -11.1303,-21.38919l3.52526,-0.23766c2.25771,11.1303 8.08036,13.03155 11.48676,18.37883c0.79218,-7.01087 -0.03959,-16.59643 -0.03959,-16.59643l4.39666,0.7526z" data-paper-data="{&quot;index&quot;:null}" fill="#668543" stroke="none" stroke-width="0.81451"/><path d="M423.21219,231.78888c-0.07922,0 -0.15843,-0.07922 -0.19802,-0.03959c-0.07922,-0.11885 0,-0.23766 0.07922,-0.27729c3.76291,-1.78244 7.32779,-6.21869 7.36738,-6.25832c0.07922,-0.07922 0.19807,-0.11881 0.27729,-0.03959c0.07922,0.07922 0.11881,0.19802 0.03959,0.27724c-0.03959,0.03963 -3.64406,4.51551 -7.48624,6.33754c-0.03959,0 -0.03959,0 -0.07922,0z" data-paper-data="{&quot;index&quot;:null}" fill="#658542" stroke="none" stroke-width="0.81451"/><path d="M421.2897,227.39222c-0.07922,0 -0.19802,-0.07922 -0.27724,-0.15844c-3.12916,-3.48567 -5.34733,-9.3479 -5.42655,-9.58556c-0.07921,-0.19803 0.03964,-0.43568 0.23766,-0.5149c0.19808,-0.07921 0.43573,0.03959 0.51495,0.23766c0,0.03958 2.21813,5.98103 5.26807,9.34785c0.11885,0.15844 0.11885,0.39609 -0.03959,0.55453c-0.07922,0.07922 -0.19807,0.11885 -0.27729,0.11885z" data-paper-data="{&quot;index&quot;:null}" fill="#658542" stroke="none" stroke-width="0.81451"/><path d="M428.65182,232.2511c0.23644,0.23688 0.38301,0.56367 0.38301,0.92412c0,0.36045 -0.14657,0.68719 -0.38301,0.92407c-0.23688,0.23649 -0.56367,0.38301 -0.92412,0.38301c-0.36045,0 -0.68724,-0.14652 -0.92407,-0.38301c-0.23649,-0.23688 -0.38306,-0.56362 -0.38306,-0.92407c0,-0.36045 0.14657,-0.68724 0.38306,-0.92412c0.23683,-0.23644 0.56362,-0.38301 0.92407,-0.38301c0.36045,0 0.68724,0.14657 0.92412,0.38301z" data-paper-data="{&quot;index&quot;:null}" fill="#00d9f9" stroke="none" stroke-width="0.81451"/><path d="M430.58795,235.14737c0.21504,0.2151 0.34814,0.51218 0.34814,0.84014c0,0.32796 -0.1331,0.62505 -0.34814,0.84009c-0.2151,0.21509 -0.51218,0.34819 -0.84014,0.34819c-0.32797,0 -0.62505,-0.1331 -0.84014,-0.34819c-0.21504,-0.21505 -0.34814,-0.51213 -0.34814,-0.84009c0,-0.32797 0.1331,-0.62505 0.34814,-0.84014c0.2151,-0.21509 0.51218,-0.34814 0.84014,-0.34814c0.32797,0 0.62505,0.13305 0.84014,0.34814z" data-paper-data="{&quot;index&quot;:null}" fill="#00d9f9" stroke="none" stroke-width="0.81451"/><path d="M427.49837,235.66232c0.21509,0.21505 0.34819,0.51213 0.34819,0.84009c0,0.32797 -0.1331,0.62505 -0.34819,0.84014c-0.2151,0.21509 -0.51213,0.34819 -0.84014,0.34819c-0.32796,0 -0.625,-0.1331 -0.84009,-0.34819c-0.21509,-0.2151 -0.34819,-0.51218 -0.34819,-0.84014c0,-0.32796 0.1331,-0.62505 0.34819,-0.84009c0.21509,-0.21509 0.51213,-0.34819 0.84009,-0.34819c0.32801,0 0.62505,0.1331 0.84014,0.34819z" data-paper-data="{&quot;index&quot;:null}" fill="#00d9f9" stroke="none" stroke-width="0.81451"/><path d="M417.29746,226.2352c0.21509,0.2151 0.34814,0.51218 0.34814,0.84014c0,0.32797 -0.13305,0.62505 -0.34814,0.84014c-0.2151,0.21504 -0.51218,0.34814 -0.84014,0.34814c-0.32796,0 -0.62505,-0.1331 -0.84009,-0.34814c-0.21509,-0.2151 -0.34819,-0.51218 -0.34819,-0.84014c0,-0.32797 0.1331,-0.62505 0.34819,-0.84014c0.21505,-0.21509 0.51213,-0.34814 0.84009,-0.34814c0.32797,0 0.62505,0.13305 0.84014,0.34814z" data-paper-data="{&quot;index&quot;:null}" fill="#00d9f9" stroke="none" stroke-width="0.81451"/><path d="M413.61377,227.18582c0.21509,0.2151 0.34814,0.51218 0.34814,0.84014c0,0.32797 -0.13305,0.62505 -0.34814,0.84014c-0.2151,0.21504 -0.51218,0.34814 -0.84014,0.34814c-0.32796,0 -0.62505,-0.1331 -0.84009,-0.34814c-0.21509,-0.2151 -0.34819,-0.51218 -0.34819,-0.84014c0,-0.32797 0.1331,-0.62505 0.34819,-0.84014c0.21505,-0.21504 0.51213,-0.34814 0.84009,-0.34814c0.32797,0 0.62505,0.1331 0.84014,0.34814z" data-paper-data="{&quot;index&quot;:null}" fill="#00d9f9" stroke="none" stroke-width="0.81451"/><path d="M416.60744,230.01474c0.20084,0.20084 0.32519,0.47808 0.32519,0.78387c0,0.30579 -0.12435,0.58308 -0.32519,0.78387c-0.20079,0.20084 -0.47808,0.32524 -0.78387,0.32524c-0.30579,0 -0.58303,-0.1244 -0.78387,-0.32524c-0.20079,-0.20079 -0.32519,-0.47808 -0.32519,-0.78387c0,-0.30579 0.1244,-0.58303 0.32519,-0.78387c0.20084,-0.20079 0.47808,-0.32519 0.78387,-0.32519c0.30579,0 0.58308,0.1244 0.78387,0.32519z" data-paper-data="{&quot;index&quot;:null}" fill="#00d9f9" stroke="none" stroke-width="0.81451"/><path d="M426.37267,209.33852c0.20079,0.20084 0.32519,0.47808 0.32519,0.78387c0,0.30579 -0.1244,0.58308 -0.32519,0.78387c-0.20084,0.20084 -0.47808,0.32519 -0.78387,0.32519c-0.30579,0 -0.58308,-0.12435 -0.78387,-0.32519c-0.20084,-0.20079 -0.32519,-0.47808 -0.32519,-0.78387c0,-0.30579 0.12435,-0.58303 0.32519,-0.78387c0.20079,-0.20079 0.47808,-0.32519 0.78387,-0.32519c0.30579,0 0.58303,0.1244 0.78387,0.32519z" data-paper-data="{&quot;index&quot;:null}" fill="#00d9f9" stroke="none" stroke-width="0.81451"/><path d="M423.18093,209.87642c0.21509,0.2151 0.34814,0.51218 0.34814,0.84014c0,0.32796 -0.13305,0.62505 -0.34814,0.84009c-0.2151,0.21509 -0.51218,0.34819 -0.84014,0.34819c-0.32796,0 -0.62505,-0.1331 -0.84009,-0.34819c-0.21509,-0.21505 -0.34819,-0.51213 -0.34819,-0.84009c0,-0.32797 0.1331,-0.62505 0.34819,-0.84014c0.21505,-0.21509 0.51213,-0.34814 0.84009,-0.34814c0.32797,0 0.62505,0.13305 0.84014,0.34814z" data-paper-data="{&quot;index&quot;:null}" fill="#00d9f9" stroke="none" stroke-width="0.81451"/><path d="M425.17287,212.99411c0.208,0.20794 0.33672,0.49511 0.33672,0.81198c0,0.31688 -0.12873,0.60404 -0.33672,0.81203c-0.20794,0.20795 -0.49511,0.33667 -0.81198,0.33667c-0.31688,0 -0.60404,-0.12873 -0.81198,-0.33667c-0.20795,-0.20799 -0.33672,-0.49516 -0.33672,-0.81203c0,-0.31688 0.12878,-0.60404 0.33672,-0.81198c0.20794,-0.20795 0.49511,-0.33667 0.81198,-0.33667c0.31688,0 0.60404,0.12873 0.81198,0.33667z" data-paper-data="{&quot;index&quot;:null}" fill="#00d9f9" stroke="none" stroke-width="0.81451"/><path d="M415.18982,245.92951c-0.1188,0 -0.23765,-0.07922 -0.31687,-0.11885c-0.1188,-0.19802 -0.07922,-0.43568 0.07922,-0.55453c3.72332,-2.69343 7.32779,-9.90238 7.36738,-9.9816c0.07922,-0.19807 0.31688,-0.27729 0.51495,-0.19807c0.19802,0.07922 0.27724,0.31688 0.19802,0.51495c-0.15844,0.27724 -3.76291,7.48619 -7.60504,10.25889c-0.07922,0.03959 -0.15844,0.07922 -0.23766,0.07922z" data-paper-data="{&quot;index&quot;:null}" fill="#658542" stroke="none" stroke-width="0.81451"/><path d="M407.10948,241.61207c-0.03963,0 -0.07922,-0.03963 -0.11885,-0.03963c-0.03959,-0.03959 -4.51547,-3.52526 -7.20895,-7.40702c-0.07922,-0.07922 -0.03959,-0.19802 0.03963,-0.27724c0.07922,-0.07921 0.19802,-0.03963 0.27724,0.03959c2.65385,3.84218 7.09014,7.28821 7.12973,7.3278c0.07922,0.07922 0.11885,0.19807 0.03963,0.27729c-0.03964,0.03959 -0.11885,0.07922 -0.15844,0.07922z" data-paper-data="{&quot;index&quot;:null}" fill="#597933" stroke="none" stroke-width="0.81451"/><path d="M423.92522,255.00015c-0.15844,0 -0.31692,-0.07922 -0.35651,-0.23766c-0.11885,-0.19808 -0.03963,-0.43573 0.15844,-0.51495c3.76291,-1.86167 8.75373,-9.30827 8.79332,-9.38749c0.11885,-0.19802 0.35651,-0.23765 0.55453,-0.1188c0.19807,0.1188 0.2377,0.35646 0.11885,0.55453c-0.23766,0.31688 -5.18885,7.68426 -9.1102,9.66473c-0.03964,0.03963 -0.07922,0.03963 -0.15844,0.03963z" data-paper-data="{&quot;index&quot;:null}" fill="#658542" stroke="none" stroke-width="0.81451"/><path d="M428.08421,250.84113c0.23766,-3.12916 1.54474,-6.13951 1.54474,-6.1791c0.07922,-0.11885 0.15844,-0.19807 0.27729,-0.11885c0.11885,0.07922 0.15844,0.15844 0.11885,0.27729c0,0.03958 -1.26754,3.01031 -1.5052,6.06025c0,0.11885 -0.07922,0.19807 -0.19802,0.19807c-0.11886,0 -0.19807,-0.11886 -0.23766,-0.23766z" data-paper-data="{&quot;index&quot;:null}" fill="#658542" stroke="none" stroke-width="0.81451"/><path d="M425.66803,260.42664c-0.07922,0 -0.15844,-0.03958 -0.19807,-0.1188c-0.03959,-0.07922 0,-0.19807 0.11885,-0.23766c3.76291,-1.50521 7.68426,-4.23827 7.72389,-4.27786c0.07922,-0.07921 0.19802,-0.03963 0.27724,0.03959c0.07921,0.07922 0.03963,0.19807 -0.03959,0.27729c-0.03963,0.03958 -4.00061,2.81229 -7.80311,4.31744c-0.03963,0 -0.03963,0 -0.07922,0z" data-paper-data="{&quot;index&quot;:null}" fill="#658542" stroke="none" stroke-width="0.81451"/><path d="M428.69673,290.68842c0.71297,-4.83238 1.18828,-13.5069 1.18828,-13.58612c0,-0.11881 0.07922,-0.15844 0.15844,-0.15844c0.11881,0 0.15844,0.07922 0.15844,0.15844c0,0.07922 -0.47531,8.75373 -1.18828,13.58612c-0.03964,0.07921 -0.07922,0.1188 -0.15844,0.1188c-0.11885,0 -0.15844,-0.07921 -0.15844,-0.1188z" data-paper-data="{&quot;index&quot;:null}" fill="#6f7138" stroke="none" stroke-width="0.81451"/><path d="M426.87465,295.40194c0.55458,-3.01031 1.02989,-9.82316 1.02989,-9.90243c0,-0.07921 0.07922,-0.15843 0.15844,-0.1188c0.07921,0 0.15843,0.07922 0.1188,0.15844c0,0.07922 -0.47531,6.85249 -0.99026,9.90243c-0.1188,0 -0.19802,0 -0.31687,-0.03963z" data-paper-data="{&quot;index&quot;:null}" fill="#6f7138" stroke="none" stroke-width="0.81451"/><path d="M416.21968,258.2481c0.07921,0.07922 0.03963,0.15844 -0.03959,0.19807c-0.03963,0 -0.03963,0 -0.07922,0c-0.03963,0 -0.11885,-0.03963 -0.11885,-0.07922c-0.03959,-0.03963 -1.98047,-3.56489 -2.25776,-7.3278h0.27729c0.27724,3.68369 2.21812,7.16936 2.21812,7.20895z" data-paper-data="{&quot;index&quot;:null}" fill="#6f7138" stroke="none" stroke-width="0.81451"/><path d="M426.35976,273.61667c-0.07922,0 -0.11885,-0.03963 -0.11885,-0.07922c-2.29734,-5.46614 -6.21869,-8.27843 -6.25832,-8.31806c-0.07922,-0.03958 -0.07922,-0.1188 -0.03959,-0.19802c0.03958,-0.07922 0.1188,-0.07922 0.19802,-0.03963c0.03963,0.03963 4.0402,2.8915 6.33754,8.43686c0.03963,0.07922 0,0.15844 -0.07922,0.19807h-0.03959z" data-paper-data="{&quot;index&quot;:null}" fill="#6f7138" stroke="none" stroke-width="0.81451"/><path d="M421.05205,267.95247c-0.03959,0 -0.07922,-0.03959 -0.07922,0c-6.97129,-7.24854 -7.72389,-12.55624 -7.72389,-12.59587c-0.03959,-0.07922 0.03963,-0.15844 0.11885,-0.15844c0.07922,-0.03959 0.15844,0.03963 0.15844,0.11885c0.03958,0.03958 0.75255,5.22848 7.64467,12.39779c0.07922,0.03963 0.03959,0.15844 0,0.19807c-0.03963,0.03959 -0.07922,0.03959 -0.11885,0.03959z" data-paper-data="{&quot;index&quot;:null}" fill="#6f7138" stroke="none" stroke-width="0.81451"/><path d="M429.29085,253.25728c0.39609,3.60452 0.39609,8.39727 0.39609,8.47649c0,0.07922 -0.07922,0.15844 -0.15844,0.15844c-0.07922,0 -0.15844,-0.07922 -0.15844,-0.15844c0,-0.03963 0,-4.91161 -0.39609,-8.51608z" data-paper-data="{&quot;index&quot;:null}" fill="#6f7138" stroke="none" stroke-width="0.81451"/><path d="M428.41945,258.44617c-0.03959,0.11881 -0.07922,0.15844 -0.15844,0.15844c0,0 -0.03959,0 0,0c-0.07922,0 -0.15844,-0.07922 -0.15844,-0.15844c0,-0.03964 -0.15843,-3.01036 -0.39609,-5.46614l0.31687,0.03959c0.23765,2.45583 0.39609,5.38692 0.39609,5.42655z" data-paper-data="{&quot;index&quot;:null}" fill="#6f7138" stroke="none" stroke-width="0.81451"/><path d="M427.98376,281.18207c0.03958,-2.45578 0.43568,-4.87197 0.83177,-7.40697c0.51494,-3.08958 1.02984,-6.25832 0.95062,-9.90243c0,-0.07922 0.07922,-0.15844 0.15844,-0.15844c0.07922,0 0.15844,0.07922 0.15844,0.15844c0.07922,3.64411 -0.43567,6.85249 -0.95062,9.94202c-0.43568,2.53504 -0.79218,4.9116 -0.83177,7.36738c0,0.07922 -0.07922,0.15844 -0.15844,0.15844c-0.07922,0 -0.15844,-0.07922 -0.15844,-0.15844z" data-paper-data="{&quot;index&quot;:null}" fill="#6f7138" stroke="none" stroke-width="0.81451"/><path d="M425.92404,286.88586c-0.11881,0 -0.15844,-0.07922 -0.15844,-0.19802c1.02984,-9.38748 -1.22787,-13.82377 -1.2675,-13.86336c-0.03958,-0.07927 0,-0.15848 0.07922,-0.19807c0.07922,-0.03963 0.15844,0 0.19807,0.07922c0.03958,0.03959 2.33692,4.5551 1.30708,14.06144c0,0.07921 -0.07922,0.1188 -0.15844,0.1188z" data-paper-data="{&quot;index&quot;:null}" fill="#6f7138" stroke="none" stroke-width="0.81451"/><path d="M434.2255,228.01847c0.19417,0.19376 0.31421,0.46162 0.31421,0.75736c0,0.29579 -0.12003,0.56365 -0.31421,0.75741c-0.19371,0.19419 -0.46162,0.31417 -0.75736,0.31417c-0.29574,0 -0.56365,-0.11999 -0.75736,-0.31417c-0.19417,-0.19376 -0.31421,-0.46161 -0.31421,-0.75741c0,-0.29574 0.12003,-0.5636 0.31421,-0.75736c0.19371,-0.19419 0.46162,-0.31417 0.75736,-0.31417c0.29574,0 0.56365,0.11999 0.75736,0.31417z" data-paper-data="{&quot;index&quot;:null}" fill="#00d9f9" stroke="#000000" stroke-width="0"/><path d="M430.48405,229.31679c0.20186,0.20186 0.32663,0.48045 0.32663,0.78778c0,0.30732 -0.12476,0.58591 -0.32663,0.78783c-0.20187,0.20187 -0.4805,0.32659 -0.78783,0.32659c-0.30733,0 -0.58591,-0.12472 -0.78778,-0.32659c-0.20186,-0.20191 -0.32663,-0.4805 -0.32663,-0.78783c0,-0.30733 0.12476,-0.58591 0.32663,-0.78778c0.20186,-0.20191 0.48045,-0.32663 0.78778,-0.32663c0.30732,0 0.58596,0.12471 0.78783,0.32663z" data-paper-data="{&quot;index&quot;:null}" fill="#00d9f9" stroke="#000000" stroke-width="0"/><path d="M433.27527,231.79763c0.22501,0.22502 0.36431,0.53576 0.36431,0.87871c0,0.3429 -0.13929,0.65364 -0.36431,0.87866c-0.22502,0.22501 -0.53582,0.36431 -0.87871,0.36431c-0.3429,0 -0.65364,-0.13929 -0.87866,-0.36431c-0.22501,-0.22502 -0.36431,-0.53577 -0.36431,-0.87866c0,-0.34295 0.13929,-0.65369 0.36431,-0.87871c0.22502,-0.22501 0.53577,-0.36431 0.87866,-0.36431c0.34289,0 0.65369,0.13929 0.87871,0.36431z" data-paper-data="{&quot;index&quot;:null}" fill="#00d9f9" stroke="#000000" stroke-width="0"/><path d="M430.8248,208.5735c0.25591,0.25633 0.41452,0.60996 0.41452,1.00001c0,0.39005 -0.15861,0.74363 -0.41452,0.99996c-0.25628,0.25592 -0.60991,0.41447 -0.99996,0.41447c-0.39005,0 -0.74368,-0.15856 -0.99996,-0.41447c-0.25591,-0.25633 -0.41452,-0.60991 -0.41452,-0.99996c0,-0.39004 0.15861,-0.74368 0.41452,-1.00001c0.25628,-0.25586 0.60991,-0.41447 0.99996,-0.41447c0.39005,0 0.74368,0.15861 0.99996,0.41447z" data-paper-data="{&quot;index&quot;:null}" fill="#00d9f9" stroke="#000000" stroke-width="0"/><path d="M432.99278,211.80619c0.24091,0.24048 0.38963,0.57265 0.38963,0.93912c0,0.36647 -0.14872,0.69868 -0.38963,0.93912c-0.24044,0.24087 -0.57265,0.38963 -0.93912,0.38963c-0.36647,0 -0.69863,-0.14877 -0.93912,-0.38963c-0.24085,-0.24044 -0.38957,-0.57265 -0.38957,-0.93912c0,-0.36647 0.14871,-0.69863 0.38957,-0.93912c0.24048,-0.24087 0.57265,-0.38963 0.93912,-0.38963c0.36647,0 0.69868,0.14877 0.93912,0.38963z" data-paper-data="{&quot;index&quot;:null}" fill="#00d9f9" stroke="#000000" stroke-width="0"/><path d="M430.18705,214.14046c0.27942,0.27949 0.45219,0.66522 0.45219,1.09089c0,0.42563 -0.17275,0.81136 -0.45219,1.09084c-0.27949,0.27942 -0.66527,0.45219 -1.09089,0.45219c-0.42563,0 -0.81136,-0.17275 -1.09084,-0.45219c-0.27942,-0.27948 -0.45219,-0.66522 -0.45219,-1.09084c0,-0.42568 0.17275,-0.81141 0.45219,-1.09089c0.27948,-0.27942 0.66522,-0.45219 1.09084,-0.45219c0.42562,0 0.81141,0.17275 1.09089,0.45219z" data-paper-data="{&quot;index&quot;:null}" fill="#00d9f9" stroke="#000000" stroke-width="0"/><path d="M430.81067,262.46567c-0.08573,0 -0.21434,-0.04284 -0.30006,-0.12856c-0.17144,-0.17145 -3.77185,-3.81475 -5.4435,-7.32949c-0.08572,-0.21429 0,-0.47146 0.21429,-0.55718c0.21435,-0.08572 0.47152,0 0.55724,0.21429c1.62876,3.38613 5.22922,7.02943 5.27206,7.07232c0.17145,0.17144 0.17145,0.42861 0,0.60006c-0.08572,0.08572 -0.17145,0.12856 -0.30001,0.12856z" data-paper-data="{&quot;index&quot;:null}" fill="#597933" stroke="#000000" stroke-width="0"/><path d="M441.78342,256.25096c8.52963,-5.51794 13.88742,-0.61841 15.47334,6.51683c-0.04289,0.23788 -0.08572,0.42815 -0.12861,0.61842c-1.07152,5.66061 -3.90047,14.60342 -17.14493,15.22184c-4.54343,0.19027 -14.14459,-2.6638 -16.80204,-16.12567c-0.38578,-1.90272 -0.64296,-4.18598 -0.85729,-6.7547c4.71488,-6.65951 15.64478,-5.56547 19.45953,0.52328z" data-paper-data="{&quot;index&quot;:null}" fill="#008994" stroke="#000000" stroke-width="0"/><path d="M454.8655,213.42949c0.2327,0.25831 0.37673,0.61508 0.37673,1.00894c0,0.39386 -0.14403,0.75063 -0.37673,1.00894c-0.23276,0.25831 -0.55423,0.41809 -0.90913,0.41809c-0.3549,0 -0.67637,-0.15978 -0.90913,-0.41809c-0.2327,-0.25831 -0.37673,-0.61508 -0.37673,-1.00894c0,-0.39386 0.14403,-0.75063 0.37673,-1.00894c0.23276,-0.25825 0.55423,-0.41809 0.90913,-0.41809c0.3549,0 0.67637,0.15984 0.90913,0.41809z" data-paper-data="{&quot;index&quot;:null}" fill="#00d9f9" stroke="#000000" stroke-width="0"/><path d="M450.84372,214.18253c0.20187,0.22404 0.32659,0.53326 0.32659,0.87433c0,0.34107 -0.12472,0.65024 -0.32659,0.87427c-0.20191,0.22408 -0.4805,0.36249 -0.78783,0.36249c-0.30732,0 -0.58591,-0.1384 -0.78783,-0.36249c-0.20187,-0.22402 -0.32659,-0.5332 -0.32659,-0.87427c0,-0.34106 0.12472,-0.6503 0.32659,-0.87433c0.20191,-0.22402 0.4805,-0.36249 0.78783,-0.36249c0.30732,0 0.58591,0.13846 0.78783,0.36249z" data-paper-data="{&quot;index&quot;:null}" fill="#00d9f9" stroke="#000000" stroke-width="0"/><path d="M453.39014,216.87441c0.21733,0.24115 0.35189,0.57415 0.35189,0.94138c0,0.36724 -0.13455,0.70023 -0.35189,0.94138c-0.21729,0.24119 -0.51735,0.39052 -0.84825,0.39052c-0.33091,0 -0.63091,-0.14932 -0.84825,-0.39052c-0.21728,-0.24115 -0.35189,-0.57415 -0.35189,-0.94138c0,-0.36724 0.1346,-0.70023 0.35189,-0.94138c0.21734,-0.24119 0.51735,-0.39052 0.84825,-0.39052c0.33091,0 0.63096,0.14932 0.84825,0.39052z" data-paper-data="{&quot;index&quot;:null}" fill="#00d9f9" stroke="#000000" stroke-width="0"/><path d="M445.10015,235.77853c0.20187,0.22402 0.32659,0.5332 0.32659,0.87427c0,0.34106 -0.12472,0.6503 -0.32659,0.87433c-0.20191,0.22402 -0.4805,0.36249 -0.78783,0.36249c-0.30732,0 -0.58591,-0.13846 -0.78783,-0.36249c-0.20187,-0.22404 -0.32659,-0.53326 -0.32659,-0.87433c0,-0.34107 0.12472,-0.65024 0.32659,-0.87427c0.20191,-0.22402 0.4805,-0.36249 0.78783,-0.36249c0.30732,0 0.58591,0.13846 0.78783,0.36249z" data-paper-data="{&quot;index&quot;:null}" fill="#00d9f9" stroke="#000000" stroke-width="0"/><path d="M454.95633,241.53668c0.25591,0.28448 0.41452,0.67688 0.41452,1.10975c0,0.43286 -0.15861,0.82533 -0.41452,1.1098c-0.25628,0.28395 -0.60991,0.45997 -0.99996,0.45997c-0.39005,0 -0.74368,-0.17602 -0.99996,-0.45997c-0.25591,-0.28447 -0.41452,-0.67693 -0.41452,-1.1098c0,-0.43288 0.15861,-0.82528 0.41452,-1.10975c0.25628,-0.28401 0.60991,-0.45997 0.99996,-0.45997c0.39005,0 0.74368,0.17596 0.99996,0.45997z" data-paper-data="{&quot;index&quot;:null}" fill="#00d9f9" stroke="#000000" stroke-width="0"/><path d="M451.76138,244.3213c0.21733,0.2412 0.35189,0.57415 0.35189,0.94138c0,0.36724 -0.13455,0.70023 -0.35189,0.94138c-0.21729,0.24119 -0.51735,0.39052 -0.84825,0.39052c-0.33091,0 -0.63091,-0.14932 -0.84825,-0.39052c-0.21733,-0.24115 -0.35189,-0.57415 -0.35189,-0.94138c0,-0.36724 0.13455,-0.70018 0.35189,-0.94138c0.21734,-0.24119 0.51735,-0.39052 0.84825,-0.39052c0.33091,0 0.63096,0.14932 0.84825,0.39052z" data-paper-data="{&quot;index&quot;:null}" fill="#00d9f9" stroke="#000000" stroke-width="0"/><path d="M457.12816,209.11078c4.58632,16.17321 1.07158,48.56723 0,54.22784c-1.07152,5.66066 -3.90047,14.60349 -17.14493,15.22184c-4.54343,0.19027 -14.14459,-2.66381 -16.80204,-16.12561c-2.65751,-13.41427 -0.30007,-47.14018 0.51434,-51.7067c0.81436,-4.56659 4.88628,-15.26945 16.63059,-15.26945c10.41557,0.04759 15.34473,8.51475 16.80204,13.65208z" data-paper-data="{&quot;index&quot;:null}" fill="#00a3a6" stroke="#000000" stroke-width="0"/><path d="M445.04102,225.09371c-0.21433,0 -0.42862,-0.19028 -0.42862,-0.47568c-0.30007,-7.46819 -2.27172,-15.41213 -2.27172,-15.50726c-0.04288,-0.23781 0.08572,-0.52321 0.30001,-0.57081c0.21433,-0.04754 0.4715,0.09514 0.51434,0.333c0.04288,0.09515 2.01454,8.13414 2.3146,15.74507c0,0.23786 -0.17145,0.47568 -0.42862,0.47568v0z" data-paper-data="{&quot;index&quot;:null}" fill="#658542" stroke="#000000" stroke-width="0"/><path d="M444.01231,215.72281c-0.04289,0 -0.08572,0 -0.12861,0c-4.92916,-3.52009 -6.60082,-6.1839 -6.68654,-6.27903c-0.08572,-0.09514 -0.04283,-0.23787 0.04289,-0.333c0.08572,-0.09513 0.21429,-0.04753 0.30001,0.0476c0,0 1.71449,2.6638 6.55798,6.13629c0.12856,0.09514 0.12856,0.23787 0.08572,0.333c-0.04289,0.04753 -0.08573,0.09513 -0.17145,0.09513z" data-paper-data="{&quot;index&quot;:null}" fill="#658542" stroke="#000000" stroke-width="0"/><path d="M452.62761,236.70036c-0.08573,0 -0.17145,-0.04759 -0.21429,-0.09513c-0.21433,-0.14272 -0.25717,-0.42812 -0.12861,-0.66594c2.14316,-3.66275 4.28626,-10.65532 4.3291,-10.70286c0.08573,-0.23786 0.34291,-0.38053 0.55724,-0.2854c0.21428,0.09514 0.34289,0.38056 0.25717,0.61842c-0.08573,0.2854 -2.22883,7.18279 -4.45771,10.94068c-0.08572,0.09514 -0.21428,0.19027 -0.34289,0.19027z" data-paper-data="{&quot;index&quot;:null}" fill="#658542" stroke="#000000" stroke-width="0"/><path d="M438.91164,249.54385c-0.04283,0 -0.08572,0 -0.08572,0c-0.21429,-0.04759 -0.38573,-0.33299 -0.30001,-0.57081c2.05739,-7.89632 2.40028,-18.02839 2.40028,-18.12352c0,-0.28541 0.17145,-0.47568 0.42862,-0.47568c0.25717,0 0.42862,0.19028 0.42862,0.47568c0,0.09514 -0.34289,10.32233 -2.44316,18.36134c-0.08573,0.19027 -0.25717,0.333 -0.42862,0.333z" data-paper-data="{&quot;index&quot;:null}" fill="#658542" stroke="#000000" stroke-width="0"/><path d="M440.45475,242.93184c-0.08573,0 -0.12861,0 -0.17145,-0.04754c-3.04323,-3.71036 -6.17219,-10.32232 -6.21508,-10.36992c-0.04284,-0.14268 0,-0.28541 0.08572,-0.33295c0.12861,-0.0476 0.25717,0 0.30006,0.09513c0,0.04753 3.12896,6.61197 6.1293,10.27473c0.08572,0.09514 0.08572,0.23787 0,0.333c-0.04284,0.04754 -0.08572,0.04754 -0.12856,0.04754z" data-paper-data="{&quot;index&quot;:null}" fill="#658542" stroke="#000000" stroke-width="0"/><path d="M445.68391,263.19595c-0.12857,0 -0.21429,-0.14273 -0.21429,-0.19027c-0.12861,-2.99681 0.38573,-11.22615 0.38573,-11.32128c0,-0.14269 0.08572,-0.23782 0.21433,-0.23782c0.12857,0 0.21429,0.09515 0.21429,0.23782c0,0.04759 -0.51434,8.27688 -0.38573,11.27368c0,0.14273 -0.08572,0.23786 -0.21433,0.23786v0z" data-paper-data="{&quot;index&quot;:null}" fill="#597933" stroke="#000000" stroke-width="0"/><path d="M450.44162,264.24245c-1.54303,2.23572 -3.90047,5.13739 -3.94331,5.18493c-0.04289,0.0476 -0.08572,0.0476 -0.12861,0.0476c-0.04284,0 -0.08572,0 -0.12856,-0.0476c-0.08572,-0.04755 -0.08572,-0.19028 0,-0.23782c0.04284,-0.0476 2.48601,-3.04441 3.9862,-5.28007z" data-paper-data="{&quot;index&quot;:null}" fill="#6f7138" stroke="#000000" stroke-width="0"/><path d="M442.64066,271.8058c0,0.04754 -0.04283,0.04754 -0.08572,0.04754c-0.04284,0 -0.08572,-0.04754 -0.12856,-0.04754c-0.04288,-0.09513 -0.04288,-0.19026 0.04284,-0.23786c0.04289,-0.04754 3.77192,-3.28221 7.11516,-8.99042l0.17145,0.333c-3.34325,5.66061 -7.07227,8.89529 -7.11516,8.89529z" data-paper-data="{&quot;index&quot;:null}" fill="#6f7138" stroke="#000000" stroke-width="0"/><path d="M445.08383,293.73477c-0.08573,0 -0.12856,-0.0476 -0.17145,-0.14273c-1.41447,-5.08979 -3.90047,-18.64674 -3.94331,-18.78947c0,-0.09514 0.04284,-0.19027 0.12856,-0.19027c0.08573,0 0.17145,0.0476 0.17145,0.14273c0.04289,0.14267 2.52889,13.69968 3.94336,18.74187c0.04284,0.09513 0,0.19026 -0.08572,0.23786h-0.04289z" data-paper-data="{&quot;index&quot;:null}" fill="#6f7138" stroke="#000000" stroke-width="0"/><path d="M442.42639,289.2158c-0.08572,0 -0.12861,-0.04759 -0.21433,-0.09513c-1.92876,-6.75471 -3.68614,-14.6035 -3.68614,-14.69863c0,-0.09515 0.04284,-0.23782 0.12856,-0.23782c0.12861,0 0.21433,0.04754 0.21433,0.14267c0,0.09513 1.75738,7.89633 3.68614,14.65103c0.04289,0.09513 0,0.19026 -0.08572,0.23786h-0.04284z" data-paper-data="{&quot;index&quot;:null}" fill="#6f7138" stroke="#000000" stroke-width="0"/><path d="M442.94073,291.4039c-0.04289,-0.09515 0,-0.19028 0.08572,-0.23782c0.08573,0 0.17145,0.04754 0.21429,0.14267c0.30006,1.33191 0.90013,3.28221 1.32875,4.51898l-0.38573,-0.09513c-0.38578,-1.23676 -0.98585,-3.09193 -1.24302,-4.3287z" data-paper-data="{&quot;index&quot;:null}" fill="#6f7138" stroke="#000000" stroke-width="0"/><path d="M439.76889,273.13773c-0.08572,0 -0.12856,-0.0476 -0.12856,-0.14273c-2.1431,-8.51469 -3.08612,-17.07704 -3.08612,-17.17217c-0.04284,-0.09514 0.04289,-0.19027 0.12861,-0.19027c0.08573,0 0.17145,0.0476 0.17145,0.14273c0.04289,0.04755 0.94296,8.60988 3.08607,17.12457c0,0.09513 -0.04284,0.19026 -0.17145,0.23786v0z" data-paper-data="{&quot;index&quot;:null}" fill="#6f7138" stroke="#000000" stroke-width="0"/><path d="M435.65414,258.00801c0.04284,0.08573 -0.04289,0.17145 -0.12861,0.17145v0c-0.08573,0 -0.17145,-0.04289 -0.17145,-0.12861c0,-0.04284 -0.47147,-3.12896 -0.6858,-6.04358l0.34289,0.17145c0.21434,2.82889 0.64296,5.7864 0.64296,5.82929z" data-paper-data="{&quot;index&quot;:null}" fill="#6f7138" stroke="#000000" stroke-width="0"/><path d="M436.03988,247.78383c1.54309,8.75255 5.52929,22.26195 5.4864,22.21435c3.17185,-2.56866 7.37233,-8.65741 7.37233,-8.65741l1.92882,3.71035c-4.28626,7.08765 -7.92956,10.22713 -7.92956,10.22713c0.85729,7.23037 4.28626,21.26305 4.28626,21.26305l-4.50055,-1.18923c-5.22922,-10.46499 -10.92991,-49.70885 -10.92991,-49.70885l4.2862,2.14059z" data-paper-data="{&quot;index&quot;:null}" fill="#668543" stroke="#000000" stroke-width="0"/><path d="M436.16847,266.75192c0.04284,0 0,0 0,0c-0.08573,0 -0.12861,-0.04289 -0.17145,-0.12861c0,-0.08573 -1.62875,-8.52957 -2.44316,-15.08755l0.34289,0.17145c0.81441,6.51509 2.35744,14.78755 2.40028,14.87327c0.04289,0.04284 0,0.12856 -0.12856,0.17145z" data-paper-data="{&quot;index&quot;:null}" fill="#6f7138" stroke="#000000" stroke-width="0"/><path d="M475.48144,254.23779c-0.59416,6.33754 -3.52525,20.95351 -22.26059,20.24049c-11.52644,-0.43567 -18.02242,-9.22904 -19.9633,-17.07174c-1.94083,-7.8427 -1.58437,-25.27095 -1.18828,-30.49943c0.7526,-10.17967 9.30827,-18.89377 20.67622,-18.89377c10.49659,0 20.67626,5.94144 22.02298,18.53731c1.2675,11.80368 0.95063,25.23131 0.71297,27.68714z" data-paper-data="{&quot;index&quot;:null}" fill="#00a3a6" stroke="none" stroke-width="0.81451"/><path d="M437.29775,253.28716c-0.07922,0 -0.19802,-0.03963 -0.27729,-0.11885c-0.03959,-0.03958 -5.70375,-4.87197 -8.83291,-9.62514c-0.11886,-0.19802 -0.07922,-0.43568 0.1188,-0.55453c0.19807,-0.11885 0.43573,-0.07922 0.55453,0.11885c3.08958,4.67391 8.67452,9.42707 8.71415,9.46666c0.15844,0.11885 0.19803,0.39614 0.03959,0.55458c-0.07921,0.11881 -0.19802,0.15844 -0.31687,0.15844z" data-paper-data="{&quot;index&quot;:null}" fill="#597933" stroke="none" stroke-width="0.81451"/><path d="M451.04231,215.10347c-0.19807,-0.07922 -0.27729,-0.31688 -0.19807,-0.51495c2.1389,-4.99082 2.57463,-10.61539 2.57463,-10.65498c0.03964,-0.19807 0.19807,-0.35651 0.43573,-0.35651c0.19802,0.03964 0.35646,0.19807 0.35646,0.43573c0,0.03959 -0.43568,5.78301 -2.61422,10.89264c-0.03964,0.15844 -0.19807,0.23766 -0.35651,0.23766c-0.03958,0 -0.07922,-0.03959 -0.19802,-0.03959z" data-paper-data="{&quot;index&quot;:null}" fill="#597933" stroke="none" stroke-width="0.81451"/><g data-paper-data="{&quot;index&quot;:null}" stroke="none" stroke-width="0.81451"><path d="M454.40913,263.86294c8.39723,0 15.88346,-3.60448 21.07231,-9.30827c-0.67339,6.49598 -3.80255,20.63663 -22.22101,19.96325c-11.52639,-0.43572 -18.02237,-9.22904 -19.96325,-17.07174c-0.27729,-1.06948 -0.47531,-2.33698 -0.67338,-3.72333c5.14926,6.17911 12.99196,10.14009 21.78533,10.14009z" fill="#008994"/><path d="M453.65653,208.05297c-0.39609,2.02005 -1.02984,4.47588 -2.0201,6.85244c-0.07922,0.15844 -0.19802,0.23766 -0.35646,0.23766c-0.03964,0 -0.11885,0 -0.15844,-0.03959c-0.19807,-0.07922 -0.27729,-0.31688 -0.19807,-0.51495c0.95062,-2.25775 1.58437,-4.63431 1.94088,-6.53556c0.23766,-0.03963 0.51495,-0.03963 0.79219,0z" fill="#658542"/><path d="M437.06008,253.20795c-0.03963,-0.03963 -2.45578,-2.05973 -4.95119,-4.7928c-0.03963,-0.39609 -0.03963,-0.83177 -0.07922,-1.2675c2.69344,3.01035 5.50573,5.38691 5.54536,5.4265c0.15844,0.15849 0.19803,0.39614 0.03959,0.55458c-0.07921,0.07922 -0.19802,0.15844 -0.31687,0.15844c-0.07922,0 -0.19803,-0.03963 -0.23766,-0.07922z" fill="#658542"/><path d="M435.99062,240.57244c-0.03959,-0.03959 -2.05969,-1.62401 -4.19859,-3.84213c0,-0.19807 0,-0.39609 0,-0.55453c2.21813,2.33698 4.43625,4.0402 4.43625,4.07979c0.07922,0.07922 0.11885,0.19807 0.03963,0.27729c-0.03964,0.03959 -0.07922,0.07922 -0.15844,0.07922c-0.03963,0 -0.07922,0 -0.11885,-0.03963z" fill="#658542"/></g><path d="M459.75642,252.53458c1.46557,9.78358 0.79218,29.54881 -1.70323,41.90702c-2.9311,0.07921 -4.71354,-0.51495 -4.71354,-0.51495c0,0 1.30713,-15.64581 -1.82203,-22.30023c-3.12917,-6.65442 -10.73421,-11.68483 -11.1303,-21.38919l3.52526,-0.23766c2.25771,11.1303 8.08036,13.03155 11.48676,18.37883c0.79218,-7.01087 -0.03959,-16.59643 -0.03959,-16.59643l4.39666,0.7526z" data-paper-data="{&quot;index&quot;:null}" fill="#668543" stroke="none" stroke-width="0.81451"/><path d="M462.21219,230.78888c-0.07922,0 -0.15843,-0.07922 -0.19802,-0.03959c-0.07922,-0.11885 0,-0.23766 0.07922,-0.27729c3.76291,-1.78244 7.32779,-6.21869 7.36738,-6.25832c0.07922,-0.07922 0.19807,-0.11881 0.27729,-0.03959c0.07922,0.07922 0.11881,0.19802 0.03959,0.27724c-0.03959,0.03963 -3.64406,4.51551 -7.48624,6.33754c-0.03959,0 -0.03959,0 -0.07922,0z" data-paper-data="{&quot;index&quot;:null}" fill="#658542" stroke="none" stroke-width="0.81451"/><path d="M450.2897,226.39222c-0.07922,0 -0.19802,-0.07922 -0.27724,-0.15844c-3.12916,-3.48567 -5.34733,-9.3479 -5.42655,-9.58556c-0.07921,-0.19803 0.03964,-0.43568 0.23766,-0.5149c0.19808,-0.07921 0.43573,0.03959 0.51495,0.23766c0,0.03958 2.21813,5.98103 5.26807,9.34785c0.11885,0.15844 0.11885,0.39609 -0.03959,0.55453c-0.07922,0.07922 -0.19807,0.11885 -0.27729,0.11885z" data-paper-data="{&quot;index&quot;:null}" fill="#658542" stroke="none" stroke-width="0.81451"/><path d="M467.65182,231.2511c0.23644,0.23688 0.38301,0.56367 0.38301,0.92412c0,0.36045 -0.14657,0.68719 -0.38301,0.92407c-0.23688,0.23649 -0.56367,0.38301 -0.92412,0.38301c-0.36045,0 -0.68724,-0.14652 -0.92407,-0.38301c-0.23649,-0.23688 -0.38306,-0.56362 -0.38306,-0.92407c0,-0.36045 0.14657,-0.68724 0.38306,-0.92412c0.23683,-0.23644 0.56362,-0.38301 0.92407,-0.38301c0.36045,0 0.68724,0.14657 0.92412,0.38301z" data-paper-data="{&quot;index&quot;:null}" fill="#00d9f9" stroke="none" stroke-width="0.81451"/><path d="M469.58795,234.14737c0.21504,0.2151 0.34814,0.51218 0.34814,0.84014c0,0.32796 -0.1331,0.62505 -0.34814,0.84009c-0.2151,0.21509 -0.51218,0.34819 -0.84014,0.34819c-0.32797,0 -0.62505,-0.1331 -0.84014,-0.34819c-0.21504,-0.21505 -0.34814,-0.51213 -0.34814,-0.84009c0,-0.32797 0.1331,-0.62505 0.34814,-0.84014c0.2151,-0.21509 0.51218,-0.34814 0.84014,-0.34814c0.32797,0 0.62505,0.13305 0.84014,0.34814z" data-paper-data="{&quot;index&quot;:null}" fill="#00d9f9" stroke="none" stroke-width="0.81451"/><path d="M466.49837,234.66232c0.21509,0.21505 0.34819,0.51213 0.34819,0.84009c0,0.32797 -0.1331,0.62505 -0.34819,0.84014c-0.2151,0.21509 -0.51213,0.34819 -0.84014,0.34819c-0.32796,0 -0.625,-0.1331 -0.84009,-0.34819c-0.21509,-0.2151 -0.34819,-0.51218 -0.34819,-0.84014c0,-0.32796 0.1331,-0.62505 0.34819,-0.84009c0.21509,-0.21509 0.51213,-0.34819 0.84009,-0.34819c0.32801,0 0.62505,0.1331 0.84014,0.34819z" data-paper-data="{&quot;index&quot;:null}" fill="#00d9f9" stroke="none" stroke-width="0.81451"/><path d="M446.29746,225.2352c0.21509,0.2151 0.34814,0.51218 0.34814,0.84014c0,0.32797 -0.13305,0.62505 -0.34814,0.84014c-0.2151,0.21504 -0.51218,0.34814 -0.84014,0.34814c-0.32796,0 -0.62505,-0.1331 -0.84009,-0.34814c-0.21509,-0.2151 -0.34819,-0.51218 -0.34819,-0.84014c0,-0.32797 0.1331,-0.62505 0.34819,-0.84014c0.21505,-0.21509 0.51213,-0.34814 0.84009,-0.34814c0.32797,0 0.62505,0.13305 0.84014,0.34814z" data-paper-data="{&quot;index&quot;:null}" fill="#00d9f9" stroke="none" stroke-width="0.81451"/><path d="M442.61377,226.18582c0.21509,0.2151 0.34814,0.51218 0.34814,0.84014c0,0.32797 -0.13305,0.62505 -0.34814,0.84014c-0.2151,0.21504 -0.51218,0.34814 -0.84014,0.34814c-0.32796,0 -0.62505,-0.1331 -0.84009,-0.34814c-0.21509,-0.2151 -0.34819,-0.51218 -0.34819,-0.84014c0,-0.32797 0.1331,-0.62505 0.34819,-0.84014c0.21505,-0.21504 0.51213,-0.34814 0.84009,-0.34814c0.32797,0 0.62505,0.1331 0.84014,0.34814z" data-paper-data="{&quot;index&quot;:null}" fill="#00d9f9" stroke="none" stroke-width="0.81451"/><path d="M445.60744,229.01474c0.20084,0.20084 0.32519,0.47808 0.32519,0.78387c0,0.30579 -0.12435,0.58308 -0.32519,0.78387c-0.20079,0.20084 -0.47808,0.32524 -0.78387,0.32524c-0.30579,0 -0.58303,-0.1244 -0.78387,-0.32524c-0.20079,-0.20079 -0.32519,-0.47808 -0.32519,-0.78387c0,-0.30579 0.1244,-0.58303 0.32519,-0.78387c0.20084,-0.20079 0.47808,-0.32519 0.78387,-0.32519c0.30579,0 0.58308,0.1244 0.78387,0.32519z" data-paper-data="{&quot;index&quot;:null}" fill="#00d9f9" stroke="none" stroke-width="0.81451"/><path d="M465.37267,208.33852c0.20079,0.20084 0.32519,0.47808 0.32519,0.78387c0,0.30579 -0.1244,0.58308 -0.32519,0.78387c-0.20084,0.20084 -0.47808,0.32519 -0.78387,0.32519c-0.30579,0 -0.58308,-0.12435 -0.78387,-0.32519c-0.20084,-0.20079 -0.32519,-0.47808 -0.32519,-0.78387c0,-0.30579 0.12435,-0.58303 0.32519,-0.78387c0.20079,-0.20079 0.47808,-0.32519 0.78387,-0.32519c0.30579,0 0.58303,0.1244 0.78387,0.32519z" data-paper-data="{&quot;index&quot;:null}" fill="#00d9f9" stroke="none" stroke-width="0.81451"/><path d="M462.18093,208.87642c0.21509,0.2151 0.34814,0.51218 0.34814,0.84014c0,0.32796 -0.13305,0.62505 -0.34814,0.84009c-0.2151,0.21509 -0.51218,0.34819 -0.84014,0.34819c-0.32796,0 -0.62505,-0.1331 -0.84009,-0.34819c-0.21509,-0.21505 -0.34819,-0.51213 -0.34819,-0.84009c0,-0.32797 0.1331,-0.62505 0.34819,-0.84014c0.21505,-0.21509 0.51213,-0.34814 0.84009,-0.34814c0.32797,0 0.62505,0.13305 0.84014,0.34814z" data-paper-data="{&quot;index&quot;:null}" fill="#00d9f9" stroke="none" stroke-width="0.81451"/><path d="M464.17287,211.99411c0.208,0.20794 0.33672,0.49511 0.33672,0.81198c0,0.31688 -0.12873,0.60404 -0.33672,0.81203c-0.20794,0.20795 -0.49511,0.33667 -0.81198,0.33667c-0.31688,0 -0.60404,-0.12873 -0.81198,-0.33667c-0.20795,-0.20799 -0.33672,-0.49516 -0.33672,-0.81203c0,-0.31688 0.12878,-0.60404 0.33672,-0.81198c0.20794,-0.20795 0.49511,-0.33667 0.81198,-0.33667c0.31688,0 0.60404,0.12873 0.81198,0.33667z" data-paper-data="{&quot;index&quot;:null}" fill="#00d9f9" stroke="none" stroke-width="0.81451"/><path d="M444.18982,244.92951c-0.1188,0 -0.23765,-0.07922 -0.31687,-0.11885c-0.1188,-0.19802 -0.07922,-0.43568 0.07922,-0.55453c3.72332,-2.69343 7.32779,-9.90238 7.36738,-9.9816c0.07922,-0.19807 0.31688,-0.27729 0.51495,-0.19807c0.19802,0.07922 0.27724,0.31688 0.19802,0.51495c-0.15844,0.27724 -3.76291,7.48619 -7.60504,10.25889c-0.07922,0.03959 -0.15844,0.07922 -0.23766,0.07922z" data-paper-data="{&quot;index&quot;:null}" fill="#658542" stroke="none" stroke-width="0.81451"/><path d="M436.10948,240.61207c-0.03963,0 -0.07922,-0.03963 -0.11885,-0.03963c-0.03959,-0.03959 -4.51547,-3.52526 -7.20895,-7.40702c-0.07922,-0.07922 -0.03959,-0.19802 0.03963,-0.27724c0.07922,-0.07921 0.19802,-0.03963 0.27724,0.03959c2.65385,3.84218 7.09014,7.28821 7.12973,7.3278c0.07922,0.07922 0.11885,0.19807 0.03963,0.27729c-0.03964,0.03959 -0.11885,0.07922 -0.15844,0.07922z" data-paper-data="{&quot;index&quot;:null}" fill="#597933" stroke="none" stroke-width="0.81451"/><path d="M462.92522,254.00015c-0.15844,0 -0.31692,-0.07922 -0.35651,-0.23766c-0.11885,-0.19808 -0.03963,-0.43573 0.15844,-0.51495c3.76291,-1.86167 8.75373,-9.30827 8.79332,-9.38749c0.11885,-0.19802 0.35651,-0.23765 0.55453,-0.1188c0.19807,0.1188 0.2377,0.35646 0.11885,0.55453c-0.23766,0.31688 -5.18885,7.68426 -9.1102,9.66473c-0.03964,0.03963 -0.07922,0.03963 -0.15844,0.03963z" data-paper-data="{&quot;index&quot;:null}" fill="#658542" stroke="none" stroke-width="0.81451"/><path d="M467.08421,249.84113c0.23766,-3.12916 1.54474,-6.13951 1.54474,-6.1791c0.07922,-0.11885 0.15844,-0.19807 0.27729,-0.11885c0.11885,0.07922 0.15844,0.15844 0.11885,0.27729c0,0.03958 -1.26754,3.01031 -1.5052,6.06025c0,0.11885 -0.07922,0.19807 -0.19802,0.19807c-0.11886,0 -0.19807,-0.11886 -0.23766,-0.23766z" data-paper-data="{&quot;index&quot;:null}" fill="#658542" stroke="none" stroke-width="0.81451"/><path d="M464.66803,259.42664c-0.07922,0 -0.15844,-0.03958 -0.19807,-0.1188c-0.03959,-0.07922 0,-0.19807 0.11885,-0.23766c3.76291,-1.50521 7.68426,-4.23827 7.72389,-4.27786c0.07922,-0.07921 0.19802,-0.03963 0.27724,0.03959c0.07921,0.07922 0.03963,0.19807 -0.03959,0.27729c-0.03963,0.03958 -4.00061,2.81229 -7.80311,4.31744c-0.03963,0 -0.03963,0 -0.07922,0z" data-paper-data="{&quot;index&quot;:null}" fill="#658542" stroke="none" stroke-width="0.81451"/><path d="M457.69673,289.68842c0.71297,-4.83238 1.18828,-13.5069 1.18828,-13.58612c0,-0.11881 0.07922,-0.15844 0.15844,-0.15844c0.11881,0 0.15844,0.07922 0.15844,0.15844c0,0.07922 -0.47531,8.75373 -1.18828,13.58612c-0.03964,0.07921 -0.07922,0.1188 -0.15844,0.1188c-0.11885,0 -0.15844,-0.07921 -0.15844,-0.1188z" data-paper-data="{&quot;index&quot;:null}" fill="#6f7138" stroke="none" stroke-width="0.81451"/><path d="M455.87465,294.40194c0.55458,-3.01031 1.02989,-9.82316 1.02989,-9.90243c0,-0.07921 0.07922,-0.15843 0.15844,-0.1188c0.07921,0 0.15843,0.07922 0.1188,0.15844c0,0.07922 -0.47531,6.85249 -0.99026,9.90243c-0.1188,0 -0.19802,0 -0.31687,-0.03963z" data-paper-data="{&quot;index&quot;:null}" fill="#6f7138" stroke="none" stroke-width="0.81451"/><path d="M445.21968,257.2481c0.07921,0.07922 0.03963,0.15844 -0.03959,0.19807c-0.03963,0 -0.03963,0 -0.07922,0c-0.03963,0 -0.11885,-0.03963 -0.11885,-0.07922c-0.03959,-0.03963 -1.98047,-3.56489 -2.25776,-7.3278h0.27729c0.27724,3.68369 2.21812,7.16936 2.21812,7.20895z" data-paper-data="{&quot;index&quot;:null}" fill="#6f7138" stroke="none" stroke-width="0.81451"/><path d="M455.35976,272.61667c-0.07922,0 -0.11885,-0.03963 -0.11885,-0.07922c-2.29734,-5.46614 -6.21869,-8.27843 -6.25832,-8.31806c-0.07922,-0.03958 -0.07922,-0.1188 -0.03959,-0.19802c0.03958,-0.07922 0.1188,-0.07922 0.19802,-0.03963c0.03963,0.03963 4.0402,2.8915 6.33754,8.43686c0.03963,0.07922 0,0.15844 -0.07922,0.19807h-0.03959z" data-paper-data="{&quot;index&quot;:null}" fill="#6f7138" stroke="none" stroke-width="0.81451"/><path d="M450.05205,266.95247c-0.03959,0 -0.07922,-0.03959 -0.07922,0c-6.97129,-7.24854 -7.72389,-12.55624 -7.72389,-12.59587c-0.03959,-0.07922 0.03963,-0.15844 0.11885,-0.15844c0.07922,-0.03959 0.15844,0.03963 0.15844,0.11885c0.03958,0.03958 0.75255,5.22848 7.64467,12.39779c0.07922,0.03963 0.03959,0.15844 0,0.19807c-0.03963,0.03959 -0.07922,0.03959 -0.11885,0.03959z" data-paper-data="{&quot;index&quot;:null}" fill="#6f7138" stroke="none" stroke-width="0.81451"/><path d="M458.29085,252.25728c0.39609,3.60452 0.39609,8.39727 0.39609,8.47649c0,0.07922 -0.07922,0.15844 -0.15844,0.15844c-0.07922,0 -0.15844,-0.07922 -0.15844,-0.15844c0,-0.03963 0,-4.91161 -0.39609,-8.51608z" data-paper-data="{&quot;index&quot;:null}" fill="#6f7138" stroke="none" stroke-width="0.81451"/><path d="M457.41945,257.44617c-0.03959,0.11881 -0.07922,0.15844 -0.15844,0.15844c0,0 -0.03959,0 0,0c-0.07922,0 -0.15844,-0.07922 -0.15844,-0.15844c0,-0.03964 -0.15843,-3.01036 -0.39609,-5.46614l0.31687,0.03959c0.23765,2.45583 0.39609,5.38692 0.39609,5.42655z" data-paper-data="{&quot;index&quot;:null}" fill="#6f7138" stroke="none" stroke-width="0.81451"/><path d="M456.98376,280.18207c0.03958,-2.45578 0.43568,-4.87197 0.83177,-7.40697c0.51494,-3.08958 1.02984,-6.25832 0.95062,-9.90243c0,-0.07922 0.07922,-0.15844 0.15844,-0.15844c0.07922,0 0.15844,0.07922 0.15844,0.15844c0.07922,3.64411 -0.43567,6.85249 -0.95062,9.94202c-0.43568,2.53504 -0.79218,4.9116 -0.83177,7.36738c0,0.07922 -0.07922,0.15844 -0.15844,0.15844c-0.07922,0 -0.15844,-0.07922 -0.15844,-0.15844z" data-paper-data="{&quot;index&quot;:null}" fill="#6f7138" stroke="none" stroke-width="0.81451"/><path d="M454.92404,285.88586c-0.11881,0 -0.15844,-0.07922 -0.15844,-0.19802c1.02984,-9.38748 -1.22787,-13.82377 -1.2675,-13.86336c-0.03958,-0.07927 0,-0.15848 0.07922,-0.19807c0.07922,-0.03963 0.15844,0 0.19807,0.07922c0.03958,0.03959 2.33692,4.5551 1.30708,14.06144c0,0.07921 -0.07922,0.1188 -0.15844,0.1188z" data-paper-data="{&quot;index&quot;:null}" fill="#6f7138" stroke="none" stroke-width="0.81451"/></g></g></svg>