<svg version="1.1" xmlns="http://www.w3.org/2000/svg" xmlns:xlink="http://www.w3.org/1999/xlink" width="37.47423" height="91.0826" viewBox="0,0,37.47423,91.0826"><g transform="translate(-436.3942,-204.4587)"><g data-paper-data="{&quot;isPaintingLayer&quot;:true}" fill-rule="nonzero" stroke="#000000" stroke-width="0" stroke-linecap="butt" stroke-linejoin="miter" stroke-miterlimit="10" stroke-dasharray="" stroke-dashoffset="0" style="mix-blend-mode: normal"><path d="M455.49427,204.4587c11.74431,0 15.81623,9.64404 16.63059,13.75886c0.81441,4.11476 3.17185,34.5042 0.51434,46.59141c-2.65745,12.13004 -12.25861,14.70177 -16.80204,14.53032c-13.24446,-0.55718 -16.07341,-8.6153 -17.14493,-13.71596c-1.07158,-5.10061 -4.58632,-34.28992 0,-48.86313c1.45731,-4.6291 6.38647,-12.25861 16.80204,-12.30149z" fill="#00a3a6"/><path d="M473.4965,258.76533c-0.21433,2.3146 -0.47151,4.37198 -0.85729,6.08646c-2.65745,12.1301 -12.25861,14.70182 -16.80204,14.53037c-13.24446,-0.55724 -16.07341,-8.61535 -17.14493,-13.71596c-0.04289,-0.17145 -0.08572,-0.34289 -0.12861,-0.55724c1.58592,-6.42936 6.94371,-10.84418 15.47334,-5.87213c3.81475,-5.4864 14.74465,-6.4722 19.45953,-0.47151z" fill="#008994"/><path d="M441.86402,220.27493c0.3549,0 0.67637,0.14403 0.90913,0.37673c0.2327,0.23276 0.37673,0.55423 0.37673,0.90913c0,0.3549 -0.14403,0.67637 -0.37673,0.90913c-0.23276,0.23276 -0.55423,0.37673 -0.90913,0.37673c-0.3549,0 -0.67637,-0.14397 -0.90913,-0.37673c-0.2327,-0.23276 -0.37673,-0.55423 -0.37673,-0.90913c0,-0.3549 0.14403,-0.67637 0.37673,-0.90913c0.23276,-0.2327 0.55423,-0.37673 0.90913,-0.37673z" fill="#00d9f9"/><path d="M445.7645,221.00357c0.30733,0 0.58592,0.12477 0.78783,0.32663c0.20187,0.20187 0.32659,0.48051 0.32659,0.78783c0,0.30733 -0.12472,0.58592 -0.32659,0.78778c-0.20192,0.20192 -0.48051,0.32663 -0.78783,0.32663c-0.30733,0 -0.58592,-0.12472 -0.78783,-0.32663c-0.20187,-0.20187 -0.32659,-0.48045 -0.32659,-0.78778c0,-0.30733 0.12472,-0.58596 0.32659,-0.78783c0.20192,-0.20187 0.48051,-0.32663 0.78783,-0.32663z" fill="#00d9f9"/><path d="M443.2785,223.40389c0.3309,0 0.63091,0.13456 0.84825,0.35189c0.21729,0.21729 0.35189,0.51734 0.35189,0.84825c0,0.3309 -0.13461,0.63096 -0.35189,0.84825c-0.21734,0.21734 -0.51734,0.35189 -0.84825,0.35189c-0.3309,0 -0.63096,-0.13456 -0.84825,-0.35189c-0.21734,-0.21729 -0.35189,-0.51734 -0.35189,-0.84825c0,-0.3309 0.13456,-0.63096 0.35189,-0.84825c0.21729,-0.21734 0.51734,-0.35189 0.84825,-0.35189z" fill="#00d9f9"/><path d="M462.35225,226.7043c0.29574,0 0.56365,0.11998 0.75736,0.31417c0.19418,0.19376 0.31421,0.46162 0.31421,0.75736c0,0.2958 -0.12004,0.56365 -0.31421,0.75741c-0.19371,0.19418 -0.46162,0.31417 -0.75736,0.31417c-0.29574,0 -0.56365,-0.11998 -0.75736,-0.31417c-0.19418,-0.19376 -0.31421,-0.46162 -0.31421,-0.75741c0,-0.29574 0.12004,-0.5636 0.31421,-0.75736c0.19371,-0.19418 0.46162,-0.31417 0.75736,-0.31417z" fill="#00d9f9"/><path d="M466.12417,227.99016c0.30733,0 0.58592,0.12472 0.78778,0.32663c0.20187,0.20187 0.32663,0.48045 0.32663,0.78778c0,0.30733 -0.12477,0.58592 -0.32663,0.78783c-0.20187,0.20187 -0.48045,0.32659 -0.78778,0.32659c-0.30733,0 -0.58596,-0.12472 -0.78783,-0.32659c-0.20187,-0.20192 -0.32663,-0.48051 -0.32663,-0.78783c0,-0.30733 0.12477,-0.58592 0.32663,-0.78778c0.20187,-0.20192 0.48051,-0.32663 0.78783,-0.32663z" fill="#00d9f9"/><path d="M463.42383,230.43332c0.34289,0 0.65364,0.1393 0.87866,0.36431c0.22502,0.22502 0.36431,0.53576 0.36431,0.87871c0,0.34289 -0.1393,0.65364 -0.36431,0.87866c-0.22502,0.22502 -0.53576,0.36431 -0.87866,0.36431c-0.34289,0 -0.65369,-0.1393 -0.87871,-0.36431c-0.22502,-0.22502 -0.36431,-0.53576 -0.36431,-0.87866c0,-0.34295 0.1393,-0.65369 0.36431,-0.87871c0.22502,-0.22502 0.53582,-0.36431 0.87871,-0.36431z" fill="#00d9f9"/><path d="M451.50807,240.4631c0.30733,0 0.58592,0.12477 0.78783,0.32663c0.20187,0.20187 0.32659,0.48045 0.32659,0.78778c0,0.30733 -0.12472,0.58596 -0.32659,0.78783c-0.20192,0.20187 -0.48051,0.32663 -0.78783,0.32663c-0.30733,0 -0.58592,-0.12477 -0.78783,-0.32663c-0.20187,-0.20187 -0.32659,-0.48051 -0.32659,-0.78783c0,-0.30733 0.12472,-0.58592 0.32659,-0.78778c0.20192,-0.20187 0.48051,-0.32663 0.78783,-0.32663z" fill="#00d9f9"/><path d="M441.86402,245.56377c0.39005,0 0.74368,0.15855 0.99996,0.41447c0.25591,0.25633 0.41452,0.60991 0.41452,0.99996c0,0.39005 -0.15861,0.74368 -0.41452,1.00001c-0.25628,0.25586 -0.60991,0.41447 -0.99996,0.41447c-0.39005,0 -0.74368,-0.15861 -0.99996,-0.41447c-0.25591,-0.25633 -0.41452,-0.60997 -0.41452,-1.00001c0,-0.39005 0.15861,-0.74363 0.41452,-0.99996c0.25628,-0.25591 0.60991,-0.41447 0.99996,-0.41447z" fill="#00d9f9"/><path d="M444.90726,248.13549c0.3309,0 0.63091,0.13456 0.84825,0.35189c0.21734,0.21734 0.35189,0.51734 0.35189,0.84825c0,0.3309 -0.13456,0.63096 -0.35189,0.84825c-0.21734,0.21734 -0.51734,0.35189 -0.84825,0.35189c-0.3309,0 -0.63096,-0.13456 -0.84825,-0.35189c-0.21734,-0.21729 -0.35189,-0.51734 -0.35189,-0.84825c0,-0.3309 0.13456,-0.63091 0.35189,-0.84825c0.21729,-0.21734 0.51734,-0.35189 0.84825,-0.35189z" fill="#00d9f9"/><path d="M465.99555,207.15903c0.39005,0 0.74368,0.15861 0.99996,0.41447c0.25591,0.25633 0.41452,0.60997 0.41452,1.00001c0,0.39005 -0.15861,0.74363 -0.41452,0.99996c-0.25628,0.25591 -0.60991,0.41447 -0.99996,0.41447c-0.39005,0 -0.74368,-0.15855 -0.99996,-0.41447c-0.25591,-0.25633 -0.41452,-0.60991 -0.41452,-0.99996c0,-0.39005 0.15861,-0.74368 0.41452,-1.00001c0.25628,-0.25586 0.60991,-0.41447 0.99996,-0.41447z" fill="#00d9f9"/><path d="M463.76673,210.41656c0.36647,0 0.69864,0.14876 0.93912,0.38963c0.24086,0.24049 0.38957,0.57265 0.38957,0.93912c0,0.36647 -0.14872,0.69868 -0.38957,0.93912c-0.24049,0.24086 -0.57265,0.38963 -0.93912,0.38963c-0.36647,0 -0.69868,-0.14876 -0.93912,-0.38963c-0.24091,-0.24044 -0.38963,-0.57265 -0.38963,-0.93912c0,-0.36647 0.14872,-0.69864 0.38963,-0.93912c0.24044,-0.24086 0.57265,-0.38963 0.93912,-0.38963z" fill="#00d9f9"/><path d="M466.72423,212.68827c0.42562,0 0.81136,0.17277 1.09084,0.45219c0.27944,0.27948 0.45219,0.66521 0.45219,1.09089c0,0.42562 -0.17277,0.81136 -0.45219,1.09084c-0.27948,0.27944 -0.66521,0.45219 -1.09084,0.45219c-0.42562,0 -0.8114,-0.17277 -1.09089,-0.45219c-0.27944,-0.27948 -0.45219,-0.66521 -0.45219,-1.09084c0,-0.42567 0.17277,-0.8114 0.45219,-1.09089c0.27948,-0.27944 0.66527,-0.45219 1.09089,-0.45219z" fill="#00d9f9"/><path d="M450.77938,231.16195v0c-0.25717,0 -0.42862,-0.21429 -0.42862,-0.42862c0.30006,-6.85799 2.27172,-14.10169 2.3146,-14.18743c0.04284,-0.21433 0.30001,-0.34289 0.51434,-0.30006c0.21429,0.04289 0.34289,0.30006 0.30001,0.51434c0,0.08572 -1.97165,7.24377 -2.27172,13.97314c0,0.25717 -0.21429,0.42862 -0.42862,0.42862z" fill="#658542"/><path d="M451.80808,222.71809c-0.08572,0 -0.12856,-0.04289 -0.17145,-0.08572c-0.04284,-0.08572 -0.04284,-0.21433 0.08572,-0.30006c4.84349,-3.12896 6.55798,-5.52923 6.55798,-5.52923c0.08572,-0.08572 0.21429,-0.12861 0.30001,-0.04289c0.08572,0.08572 0.12861,0.21433 0.04289,0.30006c-0.08572,0.08572 -1.75738,2.486 -6.68654,5.65785c-0.04289,0 -0.08572,0 -0.12861,0z" fill="#658542"/><path d="M443.19277,241.6204c-0.12861,0 -0.25717,-0.08572 -0.34289,-0.17145c-2.22888,-3.38613 -4.37198,-9.60116 -4.45771,-9.85833c-0.08572,-0.21433 0.04289,-0.47151 0.25717,-0.55724c0.21433,-0.08572 0.47151,0.04284 0.55724,0.25717c0.04284,0.04284 2.18594,6.34364 4.3291,9.64404c0.12856,0.21429 0.08572,0.47146 -0.12861,0.60006c-0.04284,0.04284 -0.12856,0.08572 -0.21429,0.08572z" fill="#658542"/><path d="M456.90874,253.19327c-0.17145,0 -0.34289,-0.12861 -0.42862,-0.30006c-2.10027,-7.24372 -2.44316,-16.45914 -2.44316,-16.54487c0,-0.25717 0.17145,-0.42862 0.42862,-0.42862c0.25717,0 0.42862,0.17145 0.42862,0.42862c0,0.08572 0.34289,9.21543 2.40028,16.33058c0.08572,0.21429 -0.08572,0.47146 -0.30001,0.51434c0,0 -0.04289,0 -0.08572,0z" fill="#658542"/><path d="M455.36565,247.23536c-0.04284,0 -0.08572,0 -0.12856,-0.04284c-0.08572,-0.08572 -0.08572,-0.21433 0,-0.30006c3.00034,-3.30041 6.1293,-9.21543 6.1293,-9.25826c0.04289,-0.08572 0.17145,-0.12861 0.30006,-0.08572c0.08572,0.04284 0.12856,0.17145 0.08572,0.30001c-0.04289,0.04289 -3.17185,6.00074 -6.21508,9.34403c-0.04284,0.04284 -0.08572,0.04284 -0.17145,0.04284z" fill="#658542"/><path d="M450.13648,265.49476v0c-0.12861,0 -0.21433,-0.08572 -0.21433,-0.21433c0.12861,-2.70033 -0.38573,-10.1155 -0.38573,-10.15839c0,-0.12856 0.08572,-0.21429 0.21429,-0.21429c0.12861,0 0.21433,0.08572 0.21433,0.21429c0,0.08572 0.51434,7.50094 0.38573,10.20128c0,0.04284 -0.08572,0.17145 -0.21429,0.17145z" fill="#597933"/><path d="M465.0097,261.46567c-0.12856,0 -0.21429,-0.04284 -0.30001,-0.12856c-0.17145,-0.17145 -0.17145,-0.42862 0,-0.60006c0.04284,-0.04289 3.6433,-3.68619 5.27206,-7.07232c0.08572,-0.21429 0.34289,-0.30001 0.55724,-0.21429c0.21429,0.08572 0.30001,0.34289 0.21429,0.55718c-1.67165,3.51474 -5.27206,7.15804 -5.4435,7.32949c-0.08572,0.08572 -0.21433,0.12856 -0.30006,0.12856z" fill="#597933"/><path d="M459.78052,251.60734l4.2862,-1.92882c0,0 -5.70069,35.3615 -10.92991,44.7912l-4.50055,1.07158c0,0 3.42897,-12.64444 4.28626,-19.15952c0,0 -3.6433,-2.82889 -7.92956,-9.21537l1.92882,-3.34329c0,0 4.20048,5.4864 7.37233,7.80094c-0.04289,0.04289 3.94331,-12.13004 5.4864,-20.01671z" fill="#668543"/><path d="M445.59305,266.13772c1.50019,2.01449 3.94336,4.71483 3.9862,4.75772c0.08572,0.04284 0.08572,0.17145 0,0.21429c-0.04284,0.04289 -0.08572,0.04289 -0.12856,0.04289c-0.04289,0 -0.08572,0 -0.12861,-0.04289c-0.04284,-0.04284 -2.40028,-2.65745 -3.94331,-4.67199z" fill="#6f7138"/><path d="M453.17972,273.25287c-0.04289,0 -3.77191,-2.91468 -7.11516,-8.01529l0.17145,-0.30006c3.34324,5.1435 7.07227,8.05817 7.11516,8.10101c0.08572,0.04289 0.08572,0.12861 0.04284,0.21433c-0.04284,0 -0.08572,0.04284 -0.12856,0.04284c-0.04289,0 -0.08572,0 -0.08572,-0.04284z" fill="#6f7138"/><path d="M450.73656,293.01241h-0.04289c-0.08572,-0.04289 -0.12856,-0.12861 -0.08572,-0.21433c1.41447,-4.54337 3.90047,-16.7592 3.94336,-16.88776c0,-0.08572 0.08572,-0.12861 0.17145,-0.12861c0.08572,0 0.12856,0.08572 0.12856,0.17145c-0.04284,0.12861 -2.52884,12.34438 -3.94331,16.93065c-0.04289,0.08572 -0.08572,0.12861 -0.17145,0.12861z" fill="#6f7138"/><path d="M453.394,288.94049h-0.04284c-0.08572,-0.04289 -0.12861,-0.12861 -0.08572,-0.21433c1.92876,-6.08646 3.68614,-13.1159 3.68614,-13.20162c0,-0.08572 0.08572,-0.12856 0.21433,-0.12856c0.08572,0 0.12856,0.12856 0.12856,0.21429c0,0.08572 -1.75738,7.15804 -3.68614,13.24451c-0.08572,0.04284 -0.12861,0.08572 -0.21433,0.08572z" fill="#6f7138"/><path d="M452.87965,290.91214c-0.25717,1.11442 -0.85724,2.78606 -1.24302,3.90047l-0.38573,0.08572c0.42862,-1.11442 1.02869,-2.87178 1.32875,-4.07192c0.04284,-0.08572 0.12856,-0.12856 0.21429,-0.12856c0.08572,0.04284 0.12861,0.12856 0.08572,0.21429z" fill="#6f7138"/><path d="M456.0515,274.45301v0c-0.12861,-0.04289 -0.17145,-0.12861 -0.17145,-0.21433c2.14311,-7.67234 3.04318,-15.38761 3.08607,-15.43045c0,-0.08572 0.08572,-0.12861 0.17145,-0.12861c0.08572,0 0.17145,0.08572 0.12861,0.17145c0,0.08572 -0.94302,7.801 -3.08612,15.47334c0,0.08572 -0.04284,0.12861 -0.12856,0.12861z" fill="#6f7138"/><path d="M460.16626,257.00801c0,-0.04289 0.42862,-3.0004 0.64296,-5.82929l0.34289,-0.17145c-0.21433,2.91462 -0.6858,6.00074 -0.6858,6.04358c0,0.08572 -0.08572,0.12861 -0.17145,0.12861v0c-0.08572,0 -0.17145,-0.08572 -0.12861,-0.17145z" fill="#6f7138"/><path d="M459.65192,265.75193c-0.12856,-0.04289 -0.17145,-0.12861 -0.12856,-0.17145c0.04284,-0.08572 1.58587,-8.35818 2.40028,-14.87327l0.34289,-0.17145c-0.81441,6.55798 -2.44316,15.00182 -2.44316,15.08755c-0.04284,0.08572 -0.08572,0.12861 -0.17145,0.12861c0,0 -0.04284,0 0,0z" fill="#6f7138"/></g></g></svg>