<svg version="1.1" xmlns="http://www.w3.org/2000/svg" xmlns:xlink="http://www.w3.org/1999/xlink" width="70.30549" height="101.0826" viewBox="0,0,70.30549,101.0826"><g transform="translate(-404.3942,-194.4587)"><g data-paper-data="{&quot;isPaintingLayer&quot;:true}" fill-rule="nonzero" stroke-linecap="butt" stroke-linejoin="miter" stroke-miterlimit="10" stroke-dasharray="" stroke-dashoffset="0" style="mix-blend-mode: normal"><path d="M428.05192,226.55065c1.34672,-12.59587 11.52639,-18.53731 22.02298,-18.53731c11.36795,0 19.92362,8.7141 20.67622,18.89377c0.39609,5.22848 0.75255,22.65673 -1.18828,30.49943c-1.94088,7.8427 -8.43686,16.63607 -19.9633,17.07174c-18.73534,0.71302 -21.66643,-13.90295 -22.26059,-20.24049c-0.23766,-2.45583 -0.55453,-15.88346 0.71297,-27.68714z" data-paper-data="{&quot;index&quot;:null}" fill="#00a3a6" stroke="none" stroke-width="0.81451"/><path d="M465.52264,253.28717c-0.11885,0 -0.23766,-0.03963 -0.31687,-0.15844c-0.15844,-0.15844 -0.11885,-0.43573 0.03959,-0.55458c0.03963,-0.03959 5.62457,-4.79275 8.71415,-9.46666c0.1188,-0.19807 0.35646,-0.2377 0.55453,-0.11885c0.19802,0.11885 0.23766,0.35651 0.1188,0.55453c-3.12916,4.75317 -8.79332,9.58556 -8.83291,9.62514c-0.07927,0.07922 -0.19807,0.11885 -0.27729,0.11885z" data-paper-data="{&quot;index&quot;:null}" fill="#597933" stroke="none" stroke-width="0.81451"/><path d="M451.58006,215.14306c-0.15844,0 -0.31687,-0.07922 -0.35651,-0.23766c-2.17854,-5.10963 -2.61422,-10.85305 -2.61422,-10.89264c0,-0.23766 0.15844,-0.39609 0.35646,-0.43573c0.23766,0 0.39609,0.15844 0.43573,0.35651c0,0.03959 0.43573,5.66416 2.57463,10.65498c0.07922,0.19807 0,0.43573 -0.19807,0.51495c-0.1188,0 -0.15844,0.03959 -0.19802,0.03959z" data-paper-data="{&quot;index&quot;:null}" fill="#597933" stroke="none" stroke-width="0.81451"/><g data-paper-data="{&quot;index&quot;:null}" stroke="none" stroke-width="0.81451"><path d="M470.19659,253.72285c-0.19807,1.38635 -0.39609,2.65385 -0.67338,3.72333c-1.94088,7.8427 -8.43686,16.63602 -19.96325,17.07174c-18.41846,0.67338 -21.54762,-13.46727 -22.22101,-19.96325c5.18885,5.70379 12.67508,9.30827 21.07231,9.30827c8.79337,0 16.63607,-3.96098 21.78533,-10.14009z" fill="#008994"/><path d="M449.95605,208.05297c0.35651,1.90125 0.99026,4.27781 1.94088,6.53556c0.07922,0.19807 0,0.43573 -0.19807,0.51495c-0.03959,0.03959 -0.1188,0.03959 -0.15844,0.03959c-0.15844,0 -0.27724,-0.07922 -0.35646,-0.23766c-0.99026,-2.37656 -1.62401,-4.83239 -2.0201,-6.85244c0.27724,-0.03963 0.55453,-0.03963 0.79219,0z" fill="#658542"/><path d="M465.7603,253.20795c-0.03963,0.03959 -0.15844,0.07922 -0.23766,0.07922c-0.11885,0 -0.23766,-0.07922 -0.31687,-0.15844c-0.15844,-0.15844 -0.11885,-0.39609 0.03959,-0.55458c0.03963,-0.03959 2.85192,-2.41615 5.54536,-5.4265c-0.03959,0.43573 -0.03959,0.87141 -0.07922,1.2675c-2.49541,2.73307 -4.91156,4.75317 -4.95119,4.7928z" fill="#658542"/><path d="M466.82977,240.57245c-0.03963,0.03963 -0.07922,0.03963 -0.11885,0.03963c-0.07922,0 -0.1188,-0.03963 -0.15844,-0.07922c-0.07922,-0.07922 -0.03959,-0.19807 0.03963,-0.27729c0,-0.03959 2.21812,-1.74281 4.43625,-4.07979c0,0.15844 0,0.35646 0,0.55453c-2.1389,2.21812 -4.159,3.80254 -4.19859,3.84213z" fill="#658542"/></g><path d="M443.06398,252.53457l4.39666,-0.7526c0,0 -0.83177,9.58556 -0.03959,16.59643c3.4064,-5.34728 9.22905,-7.24853 11.48676,-18.37883l3.52526,0.23766c-0.39609,9.70436 -8.00113,14.73477 -11.1303,21.38919c-3.12916,6.65442 -1.82203,22.30023 -1.82203,22.30023c0,0 -1.78244,0.59416 -4.71354,0.51495c-2.49541,-12.35821 -3.1688,-32.12344 -1.70323,-41.90702z" data-paper-data="{&quot;index&quot;:null}" fill="#668543" stroke="none" stroke-width="0.81451"/><path d="M440.6082,230.78887c-0.03963,0 -0.03963,0 -0.07922,0c-3.84218,-1.82203 -7.44665,-6.29791 -7.48624,-6.33754c-0.07922,-0.07922 -0.03963,-0.19802 0.03959,-0.27724c0.07922,-0.07922 0.19807,-0.03963 0.27729,0.03959c0.03959,0.03963 3.60447,4.47588 7.36738,6.25832c0.07922,0.03963 0.15844,0.15844 0.07922,0.27729c-0.03959,-0.03963 -0.1188,0.03959 -0.19802,0.03959z" data-paper-data="{&quot;index&quot;:null}" fill="#658542" stroke="none" stroke-width="0.81451"/><path d="M452.53068,226.39221c-0.07922,0 -0.19807,-0.03963 -0.27729,-0.11885c-0.15844,-0.15844 -0.15844,-0.39609 -0.03959,-0.55453c3.04994,-3.36682 5.26807,-9.30827 5.26807,-9.34785c0.07922,-0.19807 0.31687,-0.31687 0.51495,-0.23766c0.19802,0.07922 0.31687,0.31687 0.23766,0.5149c-0.07922,0.23766 -2.29739,6.09989 -5.42655,9.58556c-0.07922,0.07922 -0.19802,0.15844 -0.27724,0.15844z" data-paper-data="{&quot;index&quot;:null}" fill="#658542" stroke="none" stroke-width="0.81451"/><path d="M436.09269,230.86809c0.36045,0 0.68724,0.14657 0.92407,0.38301c0.23649,0.23688 0.38306,0.56367 0.38306,0.92412c0,0.36045 -0.14657,0.68719 -0.38306,0.92407c-0.23683,0.23649 -0.56362,0.38301 -0.92407,0.38301c-0.36045,0 -0.68724,-0.14652 -0.92412,-0.38301c-0.23644,-0.23688 -0.38301,-0.56362 -0.38301,-0.92407c0,-0.36045 0.14657,-0.68724 0.38301,-0.92412c0.23688,-0.23644 0.56367,-0.38301 0.92412,-0.38301z" data-paper-data="{&quot;index&quot;:null}" fill="#00d9f9" stroke="none" stroke-width="0.81451"/><path d="M434.07258,233.79923c0.32796,0 0.62504,0.13305 0.84014,0.34814c0.21504,0.21509 0.34814,0.51217 0.34814,0.84014c0,0.32796 -0.1331,0.62504 -0.34814,0.84009c-0.21509,0.21509 -0.51217,0.34819 -0.84014,0.34819c-0.32796,0 -0.62504,-0.1331 -0.84014,-0.34819c-0.21504,-0.21504 -0.34814,-0.51213 -0.34814,-0.84009c0,-0.32796 0.1331,-0.62504 0.34814,-0.84014c0.21509,-0.21509 0.51217,-0.34814 0.84014,-0.34814z" data-paper-data="{&quot;index&quot;:null}" fill="#00d9f9" stroke="none" stroke-width="0.81451"/><path d="M437.16216,234.31413c0.32796,0 0.625,0.1331 0.84009,0.34819c0.21509,0.21504 0.34819,0.51213 0.34819,0.84009c0,0.32796 -0.1331,0.62504 -0.34819,0.84014c-0.21509,0.21509 -0.51213,0.34819 -0.84009,0.34819c-0.32801,0 -0.62504,-0.1331 -0.84014,-0.34819c-0.21509,-0.21509 -0.34819,-0.51217 -0.34819,-0.84014c0,-0.32796 0.1331,-0.62504 0.34819,-0.84009c0.21509,-0.21509 0.51213,-0.34819 0.84014,-0.34819z" data-paper-data="{&quot;index&quot;:null}" fill="#00d9f9" stroke="none" stroke-width="0.81451"/><path d="M457.36307,224.88706c0.32796,0 0.62504,0.13305 0.84009,0.34814c0.21509,0.21509 0.34819,0.51217 0.34819,0.84014c0,0.32796 -0.1331,0.62504 -0.34819,0.84014c-0.21504,0.21504 -0.51213,0.34814 -0.84009,0.34814c-0.32796,0 -0.62504,-0.1331 -0.84014,-0.34814c-0.21509,-0.21509 -0.34814,-0.51217 -0.34814,-0.84014c0,-0.32796 0.13305,-0.62504 0.34814,-0.84014c0.21509,-0.21509 0.51217,-0.34814 0.84014,-0.34814z" data-paper-data="{&quot;index&quot;:null}" fill="#00d9f9" stroke="none" stroke-width="0.81451"/><path d="M461.04676,225.83768c0.32796,0 0.62504,0.1331 0.84009,0.34814c0.21509,0.21509 0.34819,0.51217 0.34819,0.84014c0,0.32796 -0.1331,0.62504 -0.34819,0.84014c-0.21504,0.21504 -0.51213,0.34814 -0.84009,0.34814c-0.32796,0 -0.62504,-0.1331 -0.84014,-0.34814c-0.21509,-0.21509 -0.34814,-0.51217 -0.34814,-0.84014c0,-0.32796 0.13305,-0.62504 0.34814,-0.84014c0.21509,-0.21504 0.51217,-0.34814 0.84014,-0.34814z" data-paper-data="{&quot;index&quot;:null}" fill="#00d9f9" stroke="none" stroke-width="0.81451"/><path d="M457.99682,228.68955c0.30579,0 0.58303,0.1244 0.78387,0.32519c0.20079,0.20084 0.32519,0.47808 0.32519,0.78387c0,0.30579 -0.1244,0.58308 -0.32519,0.78387c-0.20084,0.20084 -0.47808,0.32524 -0.78387,0.32524c-0.30579,0 -0.58308,-0.1244 -0.78387,-0.32524c-0.20084,-0.20079 -0.32519,-0.47808 -0.32519,-0.78387c0,-0.30579 0.12435,-0.58303 0.32519,-0.78387c0.20079,-0.20079 0.47808,-0.32519 0.78387,-0.32519z" data-paper-data="{&quot;index&quot;:null}" fill="#00d9f9" stroke="none" stroke-width="0.81451"/><path d="M438.23159,208.01333c0.30579,0 0.58308,0.1244 0.78387,0.32519c0.20084,0.20084 0.32519,0.47808 0.32519,0.78387c0,0.30579 -0.12435,0.58308 -0.32519,0.78387c-0.20079,0.20084 -0.47808,0.32519 -0.78387,0.32519c-0.30579,0 -0.58303,-0.12435 -0.78387,-0.32519c-0.20079,-0.20079 -0.32519,-0.47808 -0.32519,-0.78387c0,-0.30579 0.1244,-0.58303 0.32519,-0.78387c0.20084,-0.20079 0.47808,-0.32519 0.78387,-0.32519z" data-paper-data="{&quot;index&quot;:null}" fill="#00d9f9" stroke="none" stroke-width="0.81451"/><path d="M441.4796,208.52828c0.32796,0 0.62504,0.13305 0.84009,0.34814c0.21509,0.21509 0.34819,0.51217 0.34819,0.84014c0,0.32796 -0.1331,0.62504 -0.34819,0.84009c-0.21504,0.21509 -0.51213,0.34819 -0.84009,0.34819c-0.32796,0 -0.62504,-0.1331 -0.84014,-0.34819c-0.21509,-0.21504 -0.34814,-0.51213 -0.34814,-0.84009c0,-0.32796 0.13305,-0.62504 0.34814,-0.84014c0.21509,-0.21509 0.51217,-0.34814 0.84014,-0.34814z" data-paper-data="{&quot;index&quot;:null}" fill="#00d9f9" stroke="none" stroke-width="0.81451"/><path d="M439.4595,211.65744c0.31687,0 0.60404,0.12872 0.81198,0.33667c0.20794,0.20794 0.33672,0.4951 0.33672,0.81198c0,0.31687 -0.12877,0.60404 -0.33672,0.81203c-0.20794,0.20794 -0.4951,0.33667 -0.81198,0.33667c-0.31687,0 -0.60404,-0.12872 -0.81198,-0.33667c-0.20799,-0.20799 -0.33672,-0.49515 -0.33672,-0.81203c0,-0.31687 0.12872,-0.60404 0.33672,-0.81198c0.20794,-0.20794 0.4951,-0.33667 0.81198,-0.33667z" data-paper-data="{&quot;index&quot;:null}" fill="#00d9f9" stroke="none" stroke-width="0.81451"/><path d="M458.63057,244.92952c-0.07922,0 -0.15844,-0.03963 -0.23766,-0.07922c-3.84213,-2.7727 -7.4466,-9.98165 -7.60504,-10.25889c-0.07922,-0.19807 0,-0.43573 0.19802,-0.51495c0.19807,-0.07922 0.43573,0 0.51495,0.19807c0.03959,0.07922 3.64406,7.28817 7.36738,9.9816c0.15844,0.11885 0.19802,0.35651 0.07922,0.55453c-0.07922,0.03963 -0.19807,0.11885 -0.31687,0.11885z" data-paper-data="{&quot;index&quot;:null}" fill="#658542" stroke="none" stroke-width="0.81451"/><path d="M466.71092,240.61208c-0.03959,0 -0.1188,-0.03963 -0.15844,-0.07922c-0.07922,-0.07922 -0.03959,-0.19807 0.03963,-0.27729c0.03959,-0.03959 4.47588,-3.48562 7.12973,-7.3278c0.07922,-0.07922 0.19802,-0.1188 0.27724,-0.03959c0.07922,0.07922 0.11885,0.19802 0.03963,0.27724c-2.69348,3.88176 -7.16936,7.36743 -7.20895,7.40702c-0.03963,0 -0.07922,0.03963 -0.11885,0.03963z" data-paper-data="{&quot;index&quot;:null}" fill="#597933" stroke="none" stroke-width="0.81451"/><path d="M439.89518,254.00014c-0.07922,0 -0.1188,0 -0.15844,-0.03963c-3.92135,-1.98047 -8.87254,-9.34785 -9.1102,-9.66473c-0.11885,-0.19807 -0.07922,-0.43573 0.11885,-0.55453c0.19802,-0.11885 0.43568,-0.07922 0.55453,0.1188c0.03959,0.07922 5.03041,7.52582 8.79332,9.38749c0.19807,0.07922 0.27729,0.31687 0.15844,0.51495c-0.03959,0.15844 -0.19807,0.23766 -0.35651,0.23766z" data-paper-data="{&quot;index&quot;:null}" fill="#658542" stroke="none" stroke-width="0.81451"/><path d="M435.49852,250.07879c-0.1188,0 -0.19802,-0.07922 -0.19802,-0.19807c-0.23766,-3.04994 -1.5052,-6.02067 -1.5052,-6.06025c-0.03959,-0.11885 0,-0.19807 0.11885,-0.27729c0.11885,-0.07922 0.19807,0 0.27729,0.11885c0,0.03959 1.30708,3.04994 1.54474,6.1791c-0.03959,0.1188 -0.1188,0.23766 -0.23766,0.23766z" data-paper-data="{&quot;index&quot;:null}" fill="#658542" stroke="none" stroke-width="0.81451"/><path d="M438.15237,259.42664c-0.03959,0 -0.03959,0 -0.07922,0c-3.8025,-1.50515 -7.76348,-4.27786 -7.80311,-4.31744c-0.07922,-0.07922 -0.1188,-0.19807 -0.03959,-0.27729c0.07922,-0.07922 0.19802,-0.1188 0.27724,-0.03959c0.03963,0.03959 3.96098,2.77265 7.72389,4.27786c0.11885,0.03959 0.15844,0.15844 0.11885,0.23766c-0.03963,0.07922 -0.11885,0.1188 -0.19807,0.1188z" data-paper-data="{&quot;index&quot;:null}" fill="#658542" stroke="none" stroke-width="0.81451"/><path d="M444.96522,289.80722c-0.07922,0 -0.1188,-0.03959 -0.15844,-0.1188c-0.71297,-4.83239 -1.18828,-13.5069 -1.18828,-13.58612c0,-0.07922 0.03963,-0.15844 0.15844,-0.15844c0.07922,0 0.15844,0.03963 0.15844,0.15844c0,0.07922 0.47531,8.75374 1.18828,13.58612c0,0.03959 -0.03959,0.1188 -0.15844,0.1188z" data-paper-data="{&quot;index&quot;:null}" fill="#6f7138" stroke="none" stroke-width="0.81451"/><path d="M446.94574,294.40195c-0.11885,0.03963 -0.19807,0.03963 -0.31687,0.03963c-0.51495,-3.04994 -0.99026,-9.82321 -0.99026,-9.90243c-0.03963,-0.07922 0.03959,-0.15844 0.1188,-0.15844c0.07922,-0.03963 0.15844,0.03959 0.15844,0.1188c0,0.07927 0.47531,6.89212 1.02989,9.90243z" data-paper-data="{&quot;index&quot;:null}" fill="#6f7138" stroke="none" stroke-width="0.81451"/><path d="M457.60072,257.2481c0,-0.03959 1.94088,-3.52526 2.21812,-7.20895h0.27729c-0.27729,3.76291 -2.21817,7.28817 -2.25776,7.3278c0,0.03959 -0.07922,0.07922 -0.11885,0.07922c-0.03959,0 -0.03959,0 -0.07922,0c-0.07922,-0.03963 -0.1188,-0.11885 -0.03959,-0.19807z" data-paper-data="{&quot;index&quot;:null}" fill="#6f7138" stroke="none" stroke-width="0.81451"/><path d="M447.46064,272.61667h-0.03959c-0.07922,-0.03963 -0.11885,-0.11885 -0.07922,-0.19807c2.29734,-5.54536 6.29791,-8.39723 6.33754,-8.43686c0.07922,-0.03959 0.15844,-0.03959 0.19802,0.03963c0.03963,0.07922 0.03963,0.15844 -0.03959,0.19802c-0.03963,0.03963 -3.96098,2.85192 -6.25832,8.31806c0,0.03959 -0.03963,0.07922 -0.11885,0.07922z" data-paper-data="{&quot;index&quot;:null}" fill="#6f7138" stroke="none" stroke-width="0.81451"/><path d="M452.76834,266.95246c-0.03963,0 -0.07922,0 -0.11885,-0.03959c-0.03959,-0.03963 -0.07922,-0.15844 0,-0.19807c6.89212,-7.16931 7.60509,-12.35821 7.64467,-12.39779c0,-0.07922 0.07922,-0.15844 0.15844,-0.11885c0.07922,0 0.15844,0.07922 0.11885,0.15844c0,0.03963 -0.7526,5.34733 -7.72389,12.59587c0,-0.03959 -0.03963,0 -0.07922,0z" data-paper-data="{&quot;index&quot;:null}" fill="#6f7138" stroke="none" stroke-width="0.81451"/><path d="M444.84642,252.21769c-0.39609,3.60447 -0.39609,8.47645 -0.39609,8.51608c0,0.07922 -0.07922,0.15844 -0.15844,0.15844c-0.07922,0 -0.15844,-0.07922 -0.15844,-0.15844c0,-0.07922 0,-4.87197 0.39609,-8.47649z" data-paper-data="{&quot;index&quot;:null}" fill="#6f7138" stroke="none" stroke-width="0.81451"/><path d="M445.40095,257.44617c0,-0.03963 0.15844,-2.97072 0.39609,-5.42655l0.31687,-0.03959c-0.23766,2.45578 -0.39609,5.4265 -0.39609,5.46614c0,0.07922 -0.07922,0.15844 -0.15844,0.15844c0.03959,0 0,0 0,0c-0.07922,0 -0.11885,-0.03963 -0.15844,-0.15844z" data-paper-data="{&quot;index&quot;:null}" fill="#6f7138" stroke="none" stroke-width="0.81451"/><path d="M445.67819,280.34051c-0.07922,0 -0.15844,-0.07922 -0.15844,-0.15844c-0.03959,-2.45578 -0.39609,-4.83234 -0.83177,-7.36738c-0.51495,-3.08953 -1.02984,-6.29791 -0.95062,-9.94202c0,-0.07922 0.07922,-0.15844 0.15844,-0.15844c0.07922,0 0.15844,0.07922 0.15844,0.15844c-0.07922,3.64411 0.43568,6.81285 0.95062,9.90243c0.39609,2.535 0.79219,4.95119 0.83177,7.40697c0,0.07922 -0.07922,0.15844 -0.15844,0.15844z" data-paper-data="{&quot;index&quot;:null}" fill="#6f7138" stroke="none" stroke-width="0.81451"/><path d="M447.89636,285.88587c-0.07922,0 -0.15844,-0.03959 -0.15844,-0.1188c-1.02984,-9.50634 1.2675,-14.02185 1.30708,-14.06144c0.03963,-0.07922 0.11885,-0.11885 0.19807,-0.07922c0.07922,0.03959 0.1188,0.1188 0.07922,0.19807c-0.03963,0.03959 -2.29734,4.47588 -1.2675,13.86336c0,0.1188 -0.03963,0.19802 -0.15844,0.19802z" data-paper-data="{&quot;index&quot;:null}" fill="#6f7138" stroke="none" stroke-width="0.81451"/><path d="M430.35225,226.7043c0.29574,0 0.56365,0.11998 0.75736,0.31417c0.19418,0.19376 0.31421,0.46162 0.31421,0.75736c0,0.2958 -0.12004,0.56365 -0.31421,0.75741c-0.19371,0.19418 -0.46162,0.31417 -0.75736,0.31417c-0.29574,0 -0.56365,-0.11998 -0.75736,-0.31417c-0.19418,-0.19376 -0.31421,-0.46162 -0.31421,-0.75741c0,-0.29574 0.12004,-0.5636 0.31421,-0.75736c0.19371,-0.19418 0.46162,-0.31417 0.75736,-0.31417z" data-paper-data="{&quot;index&quot;:null}" fill="#00d9f9" stroke="#000000" stroke-width="0"/><path d="M434.12417,227.99016c0.30733,0 0.58592,0.12472 0.78778,0.32663c0.20187,0.20187 0.32663,0.48045 0.32663,0.78778c0,0.30733 -0.12477,0.58592 -0.32663,0.78783c-0.20187,0.20187 -0.48045,0.32659 -0.78778,0.32659c-0.30733,0 -0.58596,-0.12472 -0.78783,-0.32659c-0.20187,-0.20192 -0.32663,-0.48051 -0.32663,-0.78783c0,-0.30733 0.12477,-0.58592 0.32663,-0.78778c0.20187,-0.20192 0.48051,-0.32663 0.78783,-0.32663z" data-paper-data="{&quot;index&quot;:null}" fill="#00d9f9" stroke="#000000" stroke-width="0"/><path d="M431.42383,230.43332c0.34289,0 0.65364,0.1393 0.87866,0.36431c0.22502,0.22502 0.36431,0.53576 0.36431,0.87871c0,0.34289 -0.1393,0.65364 -0.36431,0.87866c-0.22502,0.22502 -0.53576,0.36431 -0.87866,0.36431c-0.34289,0 -0.65369,-0.1393 -0.87871,-0.36431c-0.22502,-0.22502 -0.36431,-0.53576 -0.36431,-0.87866c0,-0.34295 0.1393,-0.65369 0.36431,-0.87871c0.22502,-0.22502 0.53582,-0.36431 0.87871,-0.36431z" data-paper-data="{&quot;index&quot;:null}" fill="#00d9f9" stroke="#000000" stroke-width="0"/><path d="M433.99555,207.15903c0.39005,0 0.74368,0.15861 0.99996,0.41447c0.25591,0.25633 0.41452,0.60997 0.41452,1.00001c0,0.39005 -0.15861,0.74363 -0.41452,0.99996c-0.25628,0.25591 -0.60991,0.41447 -0.99996,0.41447c-0.39005,0 -0.74368,-0.15855 -0.99996,-0.41447c-0.25591,-0.25633 -0.41452,-0.60991 -0.41452,-0.99996c0,-0.39005 0.15861,-0.74368 0.41452,-1.00001c0.25628,-0.25586 0.60991,-0.41447 0.99996,-0.41447z" data-paper-data="{&quot;index&quot;:null}" fill="#00d9f9" stroke="#000000" stroke-width="0"/><path d="M431.76673,210.41656c0.36647,0 0.69864,0.14876 0.93912,0.38963c0.24086,0.24049 0.38957,0.57265 0.38957,0.93912c0,0.36647 -0.14872,0.69868 -0.38957,0.93912c-0.24049,0.24086 -0.57265,0.38963 -0.93912,0.38963c-0.36647,0 -0.69868,-0.14876 -0.93912,-0.38963c-0.24091,-0.24044 -0.38963,-0.57265 -0.38963,-0.93912c0,-0.36647 0.14872,-0.69864 0.38963,-0.93912c0.24044,-0.24086 0.57265,-0.38963 0.93912,-0.38963z" data-paper-data="{&quot;index&quot;:null}" fill="#00d9f9" stroke="#000000" stroke-width="0"/><path d="M434.72423,212.68827c0.42562,0 0.81136,0.17277 1.09084,0.45219c0.27944,0.27948 0.45219,0.66521 0.45219,1.09089c0,0.42562 -0.17277,0.81136 -0.45219,1.09084c-0.27948,0.27944 -0.66521,0.45219 -1.09084,0.45219c-0.42562,0 -0.8114,-0.17277 -1.09089,-0.45219c-0.27944,-0.27948 -0.45219,-0.66521 -0.45219,-1.09084c0,-0.42567 0.17277,-0.8114 0.45219,-1.09089c0.27948,-0.27944 0.66527,-0.45219 1.09089,-0.45219z" data-paper-data="{&quot;index&quot;:null}" fill="#00d9f9" stroke="#000000" stroke-width="0"/><path d="M433.0097,261.46567c-0.12856,0 -0.21429,-0.04284 -0.30001,-0.12856c-0.17145,-0.17145 -0.17145,-0.42862 0,-0.60006c0.04284,-0.04289 3.6433,-3.68619 5.27206,-7.07232c0.08572,-0.21429 0.34289,-0.30001 0.55724,-0.21429c0.21429,0.08572 0.30001,0.34289 0.21429,0.55718c-1.67165,3.51474 -5.27206,7.15804 -5.4435,7.32949c-0.08572,0.08572 -0.21433,0.12856 -0.30006,0.12856z" data-paper-data="{&quot;index&quot;:null}" fill="#597933" stroke="#000000" stroke-width="0"/><path d="M423.49427,194.4587c11.74431,0 15.81623,10.70286 16.63059,15.26945c0.81441,4.56652 3.17185,38.29243 0.51434,51.7067c-2.65745,13.4618 -12.25861,16.31588 -16.80204,16.12561c-13.24446,-0.61835 -16.07341,-9.56118 -17.14493,-15.22184c-1.07158,-5.66061 -4.58632,-38.05463 0,-54.22784c1.45731,-5.13733 6.38647,-13.60449 16.80204,-13.65208z" data-paper-data="{&quot;index&quot;:null}" fill="#00a3a6" stroke="#000000" stroke-width="0"/><path d="M441.4965,254.72768c-0.21433,2.56872 -0.47151,4.85198 -0.85729,6.7547c-2.65745,13.46187 -12.25861,16.31594 -16.80204,16.12567c-13.24446,-0.61842 -16.07341,-9.56123 -17.14493,-15.22184c-0.04289,-0.19027 -0.08572,-0.38054 -0.12861,-0.61842c1.58592,-7.13524 6.94371,-12.03477 15.47334,-6.51683c3.81475,-6.08875 14.74465,-7.18279 19.45953,-0.52328z" data-paper-data="{&quot;index&quot;:null}" fill="#008994" stroke="#000000" stroke-width="0"/><path d="M409.86402,212.0114c0.3549,0 0.67637,0.15984 0.90913,0.41809c0.2327,0.25831 0.37673,0.61508 0.37673,1.00894c0,0.39386 -0.14403,0.75063 -0.37673,1.00894c-0.23276,0.25831 -0.55423,0.41809 -0.90913,0.41809c-0.3549,0 -0.67637,-0.15978 -0.90913,-0.41809c-0.2327,-0.25831 -0.37673,-0.61508 -0.37673,-1.00894c0,-0.39386 0.14403,-0.75063 0.37673,-1.00894c0.23276,-0.25825 0.55423,-0.41809 0.90913,-0.41809z" data-paper-data="{&quot;index&quot;:null}" fill="#00d9f9" stroke="#000000" stroke-width="0"/><path d="M413.7645,212.82004c0.30733,0 0.58592,0.13847 0.78783,0.36249c0.20187,0.22403 0.32659,0.53327 0.32659,0.87433c0,0.34107 -0.12472,0.65025 -0.32659,0.87427c-0.20192,0.22409 -0.48051,0.36249 -0.78783,0.36249c-0.30733,0 -0.58592,-0.13841 -0.78783,-0.36249c-0.20187,-0.22403 -0.32659,-0.5332 -0.32659,-0.87427c0,-0.34107 0.12472,-0.65029 0.32659,-0.87433c0.20192,-0.22403 0.48051,-0.36249 0.78783,-0.36249z" data-paper-data="{&quot;index&quot;:null}" fill="#00d9f9" stroke="#000000" stroke-width="0"/><path d="M411.2785,215.48389c0.3309,0 0.63091,0.14933 0.84825,0.39052c0.21729,0.24115 0.35189,0.57414 0.35189,0.94138c0,0.36723 -0.13461,0.70023 -0.35189,0.94138c-0.21734,0.2412 -0.51734,0.39052 -0.84825,0.39052c-0.3309,0 -0.63096,-0.14933 -0.84825,-0.39052c-0.21734,-0.24115 -0.35189,-0.57414 -0.35189,-0.94138c0,-0.36723 0.13456,-0.70023 0.35189,-0.94138c0.21729,-0.2412 0.51734,-0.39052 0.84825,-0.39052z" data-paper-data="{&quot;index&quot;:null}" fill="#00d9f9" stroke="#000000" stroke-width="0"/><path d="M419.50807,234.41604c0.30733,0 0.58592,0.13847 0.78783,0.36249c0.20187,0.22403 0.32659,0.5332 0.32659,0.87427c0,0.34107 -0.12472,0.65029 -0.32659,0.87433c-0.20192,0.22403 -0.48051,0.36249 -0.78783,0.36249c-0.30733,0 -0.58592,-0.13847 -0.78783,-0.36249c-0.20187,-0.22403 -0.32659,-0.53327 -0.32659,-0.87433c0,-0.34107 0.12472,-0.65025 0.32659,-0.87427c0.20192,-0.22403 0.48051,-0.36249 0.78783,-0.36249z" data-paper-data="{&quot;index&quot;:null}" fill="#00d9f9" stroke="#000000" stroke-width="0"/><path d="M409.86402,240.07671c0.39005,0 0.74368,0.17596 0.99996,0.45997c0.25591,0.28447 0.41452,0.67687 0.41452,1.10975c0,0.43287 -0.15861,0.82533 -0.41452,1.1098c-0.25628,0.28395 -0.60991,0.45997 -0.99996,0.45997c-0.39005,0 -0.74368,-0.17602 -0.99996,-0.45997c-0.25591,-0.28447 -0.41452,-0.67694 -0.41452,-1.1098c0,-0.43287 0.15861,-0.82527 0.41452,-1.10975c0.25628,-0.28401 0.60991,-0.45997 0.99996,-0.45997z" data-paper-data="{&quot;index&quot;:null}" fill="#00d9f9" stroke="#000000" stroke-width="0"/><path d="M412.90726,242.93078c0.3309,0 0.63091,0.14933 0.84825,0.39052c0.21734,0.2412 0.35189,0.57414 0.35189,0.94138c0,0.36723 -0.13456,0.70023 -0.35189,0.94138c-0.21734,0.2412 -0.51734,0.39052 -0.84825,0.39052c-0.3309,0 -0.63096,-0.14933 -0.84825,-0.39052c-0.21734,-0.24115 -0.35189,-0.57414 -0.35189,-0.94138c0,-0.36723 0.13456,-0.70018 0.35189,-0.94138c0.21729,-0.2412 0.51734,-0.39052 0.84825,-0.39052z" data-paper-data="{&quot;index&quot;:null}" fill="#00d9f9" stroke="#000000" stroke-width="0"/><path d="M418.77938,224.09371v0c-0.25717,0 -0.42862,-0.23782 -0.42862,-0.47568c0.30006,-7.61093 2.27172,-15.64992 2.3146,-15.74507c0.04284,-0.23786 0.30001,-0.38054 0.51434,-0.333c0.21429,0.0476 0.34289,0.333 0.30001,0.57081c0,0.09513 -1.97165,8.03907 -2.27172,15.50726c0,0.2854 -0.21429,0.47568 -0.42862,0.47568z" data-paper-data="{&quot;index&quot;:null}" fill="#658542" stroke="#000000" stroke-width="0"/><path d="M419.80808,214.7228c-0.08572,0 -0.12856,-0.0476 -0.17145,-0.09513c-0.04284,-0.09513 -0.04284,-0.23786 0.08572,-0.333c4.84349,-3.47249 6.55798,-6.13629 6.55798,-6.13629c0.08572,-0.09513 0.21429,-0.14273 0.30001,-0.0476c0.08572,0.09513 0.12861,0.23786 0.04289,0.333c-0.08572,0.09513 -1.75738,2.75894 -6.68654,6.27903c-0.04289,0 -0.08572,0 -0.12861,0z" data-paper-data="{&quot;index&quot;:null}" fill="#658542" stroke="#000000" stroke-width="0"/><path d="M411.19277,235.7004c-0.12861,0 -0.25717,-0.09513 -0.34289,-0.19027c-2.22888,-3.75789 -4.37198,-10.65528 -4.45771,-10.94068c-0.08572,-0.23786 0.04289,-0.52328 0.25717,-0.61842c0.21433,-0.09513 0.47151,0.04754 0.55724,0.2854c0.04284,0.04754 2.18594,7.04011 4.3291,10.70286c0.12856,0.23782 0.08572,0.52322 -0.12861,0.66594c-0.04284,0.04754 -0.12856,0.09513 -0.21429,0.09513z" data-paper-data="{&quot;index&quot;:null}" fill="#658542" stroke="#000000" stroke-width="0"/><path d="M424.90874,248.54386c-0.17145,0 -0.34289,-0.14273 -0.42862,-0.333c-2.10027,-8.03901 -2.44316,-18.2662 -2.44316,-18.36134c0,-0.2854 0.17145,-0.47568 0.42862,-0.47568c0.25717,0 0.42862,0.19027 0.42862,0.47568c0,0.09513 0.34289,10.2272 2.40028,18.12352c0.08572,0.23782 -0.08572,0.52322 -0.30001,0.57081c0,0 -0.04289,0 -0.08572,0z" data-paper-data="{&quot;index&quot;:null}" fill="#658542" stroke="#000000" stroke-width="0"/><path d="M423.36565,241.93183c-0.04284,0 -0.08572,0 -0.12856,-0.04754c-0.08572,-0.09513 -0.08572,-0.23786 0,-0.333c3.00034,-3.66276 6.1293,-10.2272 6.1293,-10.27473c0.04289,-0.09513 0.17145,-0.14273 0.30006,-0.09513c0.08572,0.04754 0.12856,0.19027 0.08572,0.33295c-0.04289,0.0476 -3.17185,6.65956 -6.21508,10.36992c-0.04284,0.04754 -0.08572,0.04754 -0.17145,0.04754z" data-paper-data="{&quot;index&quot;:null}" fill="#658542" stroke="#000000" stroke-width="0"/><path d="M418.13648,262.19594v0c-0.12861,0 -0.21433,-0.09513 -0.21433,-0.23786c0.12861,-2.9968 -0.38573,-11.22609 -0.38573,-11.27368c0,-0.14267 0.08572,-0.23782 0.21429,-0.23782c0.12861,0 0.21433,0.09513 0.21433,0.23782c0,0.09513 0.51434,8.32447 0.38573,11.32128c0,0.04754 -0.08572,0.19027 -0.21429,0.19027z" data-paper-data="{&quot;index&quot;:null}" fill="#597933" stroke="#000000" stroke-width="0"/><path d="M427.78052,246.78381l4.2862,-2.14059c0,0 -5.70069,39.24386 -10.92991,49.70885l-4.50055,1.18923c0,0 3.42897,-14.03268 4.28626,-21.26305c0,0 -3.6433,-3.13948 -7.92956,-10.22713l1.92882,-3.71035c0,0 4.20048,6.08875 7.37233,8.65741c-0.04289,0.0476 3.94331,-13.4618 5.4864,-22.21435z" data-paper-data="{&quot;index&quot;:null}" fill="#668543" stroke="#000000" stroke-width="0"/><path d="M413.59305,262.90949c1.50019,2.23566 3.94336,5.23247 3.9862,5.28007c0.08572,0.04754 0.08572,0.19027 0,0.23782c-0.04284,0.0476 -0.08572,0.0476 -0.12856,0.0476c-0.04289,0 -0.08572,0 -0.12861,-0.0476c-0.04284,-0.04754 -2.40028,-2.94921 -3.94331,-5.18493z" data-paper-data="{&quot;index&quot;:null}" fill="#6f7138" stroke="#000000" stroke-width="0"/><path d="M421.17972,270.80581c-0.04289,0 -3.77191,-3.23468 -7.11516,-8.89529l0.17145,-0.333c3.34324,5.70821 7.07227,8.94288 7.11516,8.99042c0.08572,0.0476 0.08572,0.14273 0.04284,0.23786c-0.04284,0 -0.08572,0.04754 -0.12856,0.04754c-0.04289,0 -0.08572,0 -0.08572,-0.04754z" data-paper-data="{&quot;index&quot;:null}" fill="#6f7138" stroke="#000000" stroke-width="0"/><path d="M418.73656,292.73476h-0.04289c-0.08572,-0.0476 -0.12856,-0.14273 -0.08572,-0.23786c1.41447,-5.04219 3.90047,-18.5992 3.94336,-18.74187c0,-0.09513 0.08572,-0.14273 0.17145,-0.14273c0.08572,0 0.12856,0.09513 0.12856,0.19027c-0.04284,0.14273 -2.52884,13.69968 -3.94331,18.78947c-0.04289,0.09513 -0.08572,0.14273 -0.17145,0.14273z" data-paper-data="{&quot;index&quot;:null}" fill="#6f7138" stroke="#000000" stroke-width="0"/><path d="M421.394,288.21578h-0.04284c-0.08572,-0.0476 -0.12861,-0.14273 -0.08572,-0.23786c1.92876,-6.7547 3.68614,-14.5559 3.68614,-14.65103c0,-0.09513 0.08572,-0.14267 0.21433,-0.14267c0.08572,0 0.12856,0.14267 0.12856,0.23782c0,0.09513 -1.75738,7.94392 -3.68614,14.69863c-0.08572,0.04754 -0.12861,0.09513 -0.21433,0.09513z" data-paper-data="{&quot;index&quot;:null}" fill="#6f7138" stroke="#000000" stroke-width="0"/><path d="M420.87965,290.4039c-0.25717,1.23677 -0.85724,3.09194 -1.24302,4.3287l-0.38573,0.09513c0.42862,-1.23677 1.02869,-3.18707 1.32875,-4.51898c0.04284,-0.09513 0.12856,-0.14267 0.21429,-0.14267c0.08572,0.04754 0.12861,0.14267 0.08572,0.23782z" data-paper-data="{&quot;index&quot;:null}" fill="#6f7138" stroke="#000000" stroke-width="0"/><path d="M424.0515,272.13772v0c-0.12861,-0.0476 -0.17145,-0.14273 -0.17145,-0.23786c2.14311,-8.51469 3.04318,-17.07702 3.08607,-17.12457c0,-0.09513 0.08572,-0.14273 0.17145,-0.14273c0.08572,0 0.17145,0.09513 0.12861,0.19027c0,0.09513 -0.94302,8.65748 -3.08612,17.17217c0,0.09513 -0.04284,0.14273 -0.12856,0.14273z" data-paper-data="{&quot;index&quot;:null}" fill="#6f7138" stroke="#000000" stroke-width="0"/><path d="M428.16626,257.00801c0,-0.04289 0.42862,-3.0004 0.64296,-5.82929l0.34289,-0.17145c-0.21433,2.91462 -0.6858,6.00074 -0.6858,6.04358c0,0.08572 -0.08572,0.12861 -0.17145,0.12861v0c-0.08572,0 -0.17145,-0.08572 -0.12861,-0.17145z" data-paper-data="{&quot;index&quot;:null}" fill="#6f7138" stroke="#000000" stroke-width="0"/><path d="M427.65192,265.75193c-0.12856,-0.04289 -0.17145,-0.12861 -0.12856,-0.17145c0.04284,-0.08572 1.58587,-8.35818 2.40028,-14.87327l0.34289,-0.17145c-0.81441,6.55798 -2.44316,15.00182 -2.44316,15.08755c-0.04284,0.08572 -0.08572,0.12861 -0.17145,0.12861c0,0 -0.04284,0 0,0z" data-paper-data="{&quot;index&quot;:null}" fill="#6f7138" stroke="#000000" stroke-width="0"/></g></g></svg>